<svg width="464" height="396" viewBox="0 0 464 396" fill="none" xmlns="http://www.w3.org/2000/svg">
<g clip-path="url(#clip0_7869_60778)">
<path d="M266.13 77.0492C266.13 77.0492 233.26 52.9092 194.91 76.6892C156.56 100.469 146.38 112.309 46.9805 131.379C46.9805 131.379 129.13 133.189 149.33 200.879L261.9 128.439L266.13 77.0492Z" fill="url(#paint0_linear_7869_60778)"/>
<path d="M256.131 138.631H256.051C255.853 138.608 255.672 138.508 255.549 138.352C255.425 138.197 255.368 137.998 255.391 137.801L260.391 91.4005C257.051 89.0305 229.251 70.5705 196.551 89.7105C192.711 91.9605 189.201 94.0705 185.801 96.1105C158.131 112.751 141.441 122.801 59.9805 136.291C59.7847 136.32 59.5852 136.271 59.4246 136.155C59.264 136.039 59.1549 135.866 59.1205 135.671C59.1034 135.573 59.106 135.473 59.1281 135.377C59.1502 135.281 59.1913 135.19 59.2491 135.11C59.3069 135.03 59.3801 134.962 59.4645 134.91C59.5489 134.859 59.6428 134.825 59.7405 134.811C140.931 121.361 157.531 111.381 185.041 94.8105C188.441 92.8105 191.951 90.6505 195.801 88.4005C231.391 67.5705 261.351 90.2105 261.651 90.4005C261.749 90.4806 261.827 90.5834 261.878 90.7C261.928 90.8167 261.95 90.9437 261.941 91.0705L256.941 137.901C256.938 138.003 256.915 138.103 256.872 138.196C256.83 138.289 256.769 138.372 256.693 138.44C256.617 138.508 256.528 138.561 256.431 138.593C256.335 138.626 256.232 138.639 256.131 138.631Z" fill="#2B0660"/>
<path d="M49.2422 131.5C49.2422 131.5 135.102 167.04 129.822 206.04L149.352 200.88C149.352 200.88 141.252 140.76 49.2422 131.5Z" fill="url(#paint1_linear_7869_60778)"/>
<path d="M286.111 43.3698C285.587 40.8743 284.575 38.5066 283.136 36.402C281.696 34.2974 279.855 32.4971 277.719 31.1041C275.583 29.7111 273.194 28.7526 270.687 28.2835C268.181 27.8143 265.606 27.8436 263.111 28.3698C262.861 28.3698 262.611 28.4998 262.361 28.5698C261.885 28.641 261.415 28.7412 260.951 28.8698C260.951 28.6698 260.901 28.4798 260.861 28.2898C260.506 26.6112 259.742 25.0461 258.637 23.7333C257.532 22.4206 256.12 21.4007 254.527 20.764C252.934 20.1274 251.208 19.8937 249.503 20.0836C247.797 20.2736 246.165 20.8813 244.751 21.8529C243.337 22.8245 242.184 24.13 241.395 25.6537C240.606 27.1774 240.205 28.8722 240.228 30.5879C240.251 32.3035 240.696 33.9871 241.526 35.4893C242.355 36.9916 243.542 38.266 244.981 39.1998C245.333 39.4312 245.701 39.6383 246.081 39.8198C241.081 44.1698 235.081 44.2398 228.731 44.3198C219.801 44.4698 208.371 47.3898 202.621 61.9898L209.121 62.4698C216.672 62.9807 224.016 65.1541 230.628 68.8346C237.241 72.5152 242.958 77.6118 247.371 83.7598C255.811 77.1898 256.641 64.0898 256.671 63.9798C256.671 63.9798 256.671 63.8798 256.561 63.7098C259.774 65.7947 263.533 66.8818 267.363 66.834C271.193 66.7861 274.923 65.6055 278.084 63.441C281.244 61.2764 283.692 58.2248 285.121 54.6708C286.55 51.1167 286.894 47.2193 286.111 43.4698V43.3698Z" fill="#2B0660"/>
<path d="M249.229 86.5007C248.939 86.0307 248.639 85.5007 248.329 85.0807C248.019 84.6607 247.699 84.1707 247.329 83.7207C246.959 84.0007 246.589 84.2807 246.199 84.5407L249.229 86.5007Z" fill="#2B0660"/>
<path d="M285.712 56.0205L285.352 48.8405C285.235 46.4776 284.534 44.1806 283.313 42.1546C282.091 40.1287 280.387 38.4369 278.352 37.2305C277.361 38.8847 276.112 40.37 274.652 41.6305C272.29 43.9136 269.391 45.5645 266.222 46.4305C265.837 46.4939 265.471 46.6444 265.152 46.8705L265.282 51.4205C265.279 52.1241 265.093 52.8148 264.742 53.4249C264.392 54.035 263.888 54.5435 263.282 54.9005C263.071 53.166 262.195 51.5809 260.839 50.4787C259.484 49.3765 257.753 48.843 256.012 48.9905C254.324 49.1518 252.757 49.9353 251.614 51.1885C250.472 52.4416 249.837 54.0748 249.832 55.7705C249.843 57.5012 250.519 59.1616 251.719 60.4085C252.919 61.6554 254.553 62.3936 256.282 62.4705L255.122 71.9705C254.977 73.1591 255.067 74.3647 255.388 75.5183C255.709 76.6719 256.254 77.751 256.993 78.6937C257.731 79.6364 258.648 80.4242 259.691 81.0123C260.734 81.6003 261.883 81.9768 263.072 82.1205C265.468 82.4144 267.883 81.7455 269.786 80.2605C271.689 78.7755 272.925 76.596 273.222 74.2005L273.622 70.9205C277.122 70.3692 280.294 68.5418 282.526 65.7905C284.759 63.0392 285.894 59.5589 285.712 56.0205Z" fill="#D667E1"/>
<path d="M264.192 82.6905C263.798 82.6921 263.403 82.6687 263.012 82.6205C261.758 82.4683 260.547 82.0704 259.447 81.4496C258.347 80.8288 257.38 79.9973 256.602 79.0026C255.824 78.0079 255.249 76.8695 254.911 75.6526C254.573 74.4357 254.478 73.1641 254.632 71.9105L255.722 62.9105C253.969 62.6968 252.354 61.8523 251.178 60.5347C250.002 59.2171 249.346 57.5165 249.332 55.7505C249.345 53.9315 250.031 52.1817 251.257 50.8378C252.482 49.4938 254.162 48.6506 255.972 48.4705C257.696 48.319 259.417 48.7906 260.822 49.7998C262.228 50.809 263.225 52.2888 263.632 53.9705C263.995 53.6534 264.285 53.2611 264.482 52.8208C264.679 52.3805 264.778 51.9028 264.772 51.4205L264.642 46.8605C264.641 46.7872 264.656 46.7146 264.685 46.6473C264.715 46.5801 264.758 46.5199 264.812 46.4705C265.196 46.1967 265.637 46.0123 266.102 45.9305C269.187 45.0824 272.007 43.4692 274.302 41.2405C275.725 40.0209 276.941 38.5789 277.902 36.9705C277.934 36.9113 277.979 36.8595 278.032 36.8182C278.085 36.7769 278.147 36.747 278.212 36.7305C278.272 36.7035 278.337 36.6895 278.402 36.6895C278.468 36.6895 278.532 36.7035 278.592 36.7305C280.7 37.9744 282.467 39.7217 283.734 41.8159C285.001 43.9102 285.729 46.286 285.852 48.7305L286.212 55.9005C286.399 59.4962 285.27 63.0368 283.035 65.8602C280.801 68.6836 277.614 70.5963 274.072 71.2405L273.722 74.1505C273.439 76.4795 272.313 78.6245 270.558 80.181C268.802 81.7376 266.538 82.5981 264.192 82.6005V82.6905ZM256.592 49.4705C256.412 49.4605 256.232 49.4605 256.052 49.4705C254.491 49.6261 253.043 50.3537 251.987 51.5133C250.931 52.6728 250.342 54.1822 250.332 55.7505C250.344 57.3571 250.973 58.8974 252.091 60.0519C253.208 61.2064 254.727 61.8863 256.332 61.9505C256.401 61.9539 256.469 61.9717 256.531 62.0027C256.593 62.0337 256.648 62.0772 256.692 62.1305C256.737 62.1826 256.77 62.243 256.791 62.3083C256.811 62.3736 256.819 62.4424 256.812 62.5105L255.652 72.0105C255.419 74.2576 256.077 76.5064 257.485 78.2731C258.893 80.0398 260.938 81.1831 263.181 81.457C265.423 81.731 267.684 81.1136 269.476 79.7378C271.267 78.362 272.448 76.3377 272.762 74.1005L273.162 70.8205C273.172 70.712 273.217 70.6099 273.292 70.5302C273.366 70.4505 273.465 70.3979 273.572 70.3805C276.951 69.8597 280.017 68.1019 282.173 65.4484C284.33 62.795 285.423 59.435 285.242 56.0205L284.882 48.8505C284.783 46.6434 284.155 44.4923 283.052 42.5781C281.949 40.6639 280.402 39.0426 278.542 37.8505C277.565 39.4006 276.365 40.7988 274.982 42.0005C272.562 44.347 269.586 46.04 266.332 46.9205C266.1 46.9705 265.875 47.0477 265.662 47.1505L265.782 51.4005C265.785 52.1883 265.584 52.9635 265.199 53.6504C264.813 54.3374 264.256 54.9128 263.582 55.3205C263.506 55.36 263.422 55.3805 263.337 55.3805C263.252 55.3805 263.168 55.36 263.092 55.3205C263.013 55.2855 262.944 55.23 262.893 55.1598C262.842 55.0895 262.811 55.0069 262.802 54.9205C262.611 53.4103 261.875 52.0221 260.73 51.018C259.586 50.0139 258.114 49.4634 256.592 49.4705Z" fill="#2B0660"/>
<path d="M263.582 68.1992C266.062 73.5892 273.022 75.4592 273.022 75.4592L273.642 70.3892C273.149 70.4699 272.651 70.52 272.152 70.5392C269.118 70.698 266.114 69.8777 263.582 68.1992Z" fill="#2B0660"/>
<path d="M275.221 53.1199C275.201 53.2521 275.154 53.3788 275.084 53.4925C275.013 53.6063 274.921 53.7048 274.812 53.7822C274.703 53.8596 274.579 53.9143 274.449 53.9431C274.318 53.9719 274.183 53.9742 274.051 53.9499C273.786 53.9048 273.55 53.7562 273.394 53.5368C273.238 53.3174 273.176 53.0451 273.221 52.7799C273.266 52.5147 273.415 52.2782 273.634 52.1226C273.854 51.9669 274.126 51.9048 274.391 51.9499C274.524 51.9704 274.65 52.0172 274.764 52.0876C274.878 52.1579 274.976 52.2504 275.054 52.3595C275.131 52.4686 275.186 52.5921 275.215 52.7227C275.243 52.8533 275.246 52.9884 275.221 53.1199Z" fill="#2B0660"/>
<path d="M271.379 49.8593C271.266 49.8579 271.157 49.8192 271.069 49.7493C270.964 49.6683 270.896 49.5491 270.879 49.4179C270.862 49.2867 270.898 49.1542 270.979 49.0493C271.425 48.4952 272.009 48.0679 272.673 47.8099C273.336 47.552 274.055 47.4725 274.759 47.5793C274.823 47.5935 274.884 47.6203 274.938 47.6582C274.992 47.6961 275.038 47.7444 275.074 47.8001C275.109 47.8559 275.133 47.9182 275.144 47.9832C275.155 48.0483 275.153 48.115 275.139 48.1793C275.11 48.3075 275.032 48.4191 274.922 48.4902C274.811 48.5613 274.677 48.5862 274.549 48.5593C274.029 48.4848 273.498 48.548 273.01 48.7428C272.522 48.9376 272.094 49.2571 271.769 49.6693C271.721 49.7272 271.662 49.7741 271.594 49.8069C271.527 49.8397 271.454 49.8576 271.379 49.8593Z" fill="#2B0660"/>
<path d="M281.79 48.7803C281.683 48.7779 281.579 48.7413 281.495 48.6758C281.41 48.6102 281.349 48.5193 281.32 48.4164C281.291 48.3134 281.295 48.2038 281.333 48.1037C281.371 48.0036 281.44 47.9183 281.53 47.8603C281.881 47.6575 282.279 47.5508 282.685 47.5508C283.09 47.5508 283.489 47.6575 283.84 47.8603C283.951 47.932 284.029 48.0449 284.057 48.1743C284.085 48.3036 284.061 48.4388 283.99 48.5503C283.956 48.6058 283.911 48.6541 283.859 48.6923C283.806 48.7305 283.746 48.7578 283.683 48.7727C283.62 48.7876 283.554 48.7898 283.49 48.779C283.426 48.7683 283.365 48.7449 283.31 48.7103C283.116 48.6052 282.9 48.5502 282.68 48.5502C282.46 48.5502 282.243 48.6052 282.05 48.7103C281.971 48.7579 281.881 48.7822 281.79 48.7803Z" fill="#2B0660"/>
<path d="M284.201 51.9494C284.159 52.1766 284.033 52.3795 283.847 52.5169C283.661 52.6543 283.43 52.716 283.201 52.6893C283.023 52.6668 282.855 52.5913 282.72 52.4727C282.585 52.3542 282.489 52.1979 282.443 52.024C282.398 51.8501 282.406 51.6666 282.465 51.4971C282.525 51.3276 282.634 51.1799 282.779 51.073C282.923 50.9661 283.096 50.9049 283.276 50.8973C283.455 50.8897 283.633 50.936 283.786 51.0302C283.939 51.1245 284.06 51.2624 284.134 51.4262C284.208 51.5901 284.232 51.7722 284.201 51.9494Z" fill="#2B0660"/>
<path d="M279.349 50.25L279.299 52.84C279.292 53.0767 279.333 53.3124 279.418 53.5334C279.503 53.7545 279.631 53.9564 279.795 54.1275C279.958 54.2987 280.154 54.4356 280.371 54.5305C280.588 54.6253 280.822 54.6761 281.059 54.68C281.177 54.6826 281.293 54.7085 281.4 54.7563C281.508 54.804 281.605 54.8727 281.686 54.9583C281.767 55.0439 281.83 55.1446 281.872 55.2548C281.914 55.3649 281.933 55.4823 281.929 55.6C281.921 55.9843 281.837 56.3633 281.682 56.7148C281.526 57.0664 281.302 57.3835 281.023 57.6477C280.744 57.912 280.415 58.1181 280.056 58.2541C279.696 58.3902 279.313 58.4533 278.929 58.44H277.879" fill="#D667E1"/>
<path d="M279.032 58.94H278.982H277.922C277.857 58.9387 277.792 58.9244 277.733 58.898C277.673 58.8715 277.619 58.8334 277.575 58.7859C277.53 58.7384 277.495 58.6825 277.472 58.6213C277.45 58.5602 277.439 58.4952 277.442 58.43C277.452 58.2999 277.509 58.1779 277.603 58.0875C277.697 57.9971 277.821 57.9446 277.952 57.94H279.002C279.319 57.9493 279.634 57.8953 279.929 57.7812C280.225 57.667 280.495 57.4949 280.723 57.2751C280.951 57.0553 281.133 56.7922 281.258 56.5011C281.384 56.21 281.449 55.8968 281.452 55.58C281.455 55.5281 281.447 55.476 281.428 55.4276C281.409 55.3791 281.38 55.3356 281.342 55.3C281.307 55.2607 281.264 55.2297 281.215 55.2089C281.167 55.1882 281.114 55.1783 281.062 55.18C280.454 55.1617 279.879 54.9047 279.459 54.4649C279.04 54.025 278.811 53.4376 278.822 52.83L278.872 50.24C278.877 50.1082 278.933 49.9836 279.028 49.8922C279.123 49.8009 279.25 49.7499 279.382 49.75C279.448 49.7499 279.513 49.7633 279.574 49.7891C279.635 49.815 279.69 49.8529 279.736 49.9005C279.781 49.9482 279.817 50.0046 279.84 50.0663C279.864 50.1281 279.875 50.194 279.872 50.26L279.822 52.86C279.817 53.0296 279.847 53.1984 279.909 53.3564C279.971 53.5145 280.063 53.6585 280.182 53.78C280.42 54.0286 280.747 54.1725 281.092 54.18C281.276 54.1825 281.457 54.2218 281.626 54.2954C281.794 54.3691 281.946 54.4756 282.073 54.6088C282.199 54.7421 282.298 54.8992 282.363 55.0712C282.428 55.2431 282.459 55.4263 282.452 55.61C282.434 56.4995 282.067 57.3465 281.432 57.969C280.796 58.5916 279.942 58.9402 279.052 58.94H279.032Z" fill="#2B0660"/>
<path d="M276.322 62.3297H276.242C272.722 61.7597 272.932 59.3297 272.932 59.3297C272.938 59.2639 272.958 59.2 272.989 59.1417C273.02 59.0834 273.062 59.0318 273.113 58.99C273.164 58.9481 273.223 58.9168 273.287 58.8979C273.35 58.879 273.416 58.8728 273.482 58.8797C273.613 58.8948 273.733 58.961 273.815 59.0641C273.898 59.1671 273.936 59.2985 273.922 59.4297C273.922 59.4997 273.852 60.9597 276.402 61.4297C276.535 61.4403 276.658 61.5032 276.744 61.6044C276.83 61.7057 276.873 61.8371 276.862 61.9697C276.851 62.1023 276.789 62.2253 276.687 62.3115C276.586 62.3978 276.455 62.4403 276.322 62.4297V62.3297Z" fill="#2B0660"/>
<path d="M255.279 58.3205C255.177 58.3195 255.078 58.2874 254.995 58.2286C254.912 58.1698 254.849 58.087 254.814 57.9914C254.779 57.8957 254.774 57.7917 254.8 57.6933C254.826 57.5948 254.882 57.5066 254.959 57.4405L256.179 56.4405L254.409 54.9105C254.31 54.822 254.249 54.6983 254.24 54.5656C254.23 54.433 254.273 54.302 254.359 54.2005C254.454 54.1082 254.581 54.0566 254.714 54.0566C254.846 54.0566 254.974 54.1082 255.069 54.2005L257.269 56.1105C257.325 56.1585 257.369 56.2185 257.398 56.2861C257.428 56.3536 257.442 56.4269 257.439 56.5005C257.439 56.5708 257.424 56.6405 257.395 56.7044C257.366 56.7683 257.323 56.825 257.269 56.8705L255.599 58.2005C255.511 58.2792 255.397 58.3221 255.279 58.3205Z" fill="#2B0660"/>
<path d="M252.912 64.6706H252.662C251.945 64.6046 251.284 64.257 250.822 63.704C250.361 63.1511 250.138 62.4378 250.202 61.7206C250.238 61.3642 250.345 61.0187 250.517 60.7044C250.689 60.39 250.922 60.1133 251.202 59.8906C251.476 59.6568 251.794 59.4813 252.138 59.3747C252.482 59.2681 252.844 59.2327 253.202 59.2706C253.562 59.3031 253.911 59.4068 254.231 59.5758C254.55 59.7448 254.832 59.9757 255.061 60.2549C255.29 60.5342 255.461 60.8562 255.564 61.2023C255.668 61.5484 255.701 61.9115 255.662 62.2706C255.583 62.9404 255.258 63.5569 254.749 64.0004C254.241 64.4438 253.587 64.6827 252.912 64.6706ZM252.912 60.2406C252.485 60.2392 252.072 60.3989 251.757 60.688C251.442 60.9772 251.247 61.3744 251.212 61.8006C251.171 62.2528 251.311 62.7028 251.602 63.0516C251.893 63.4004 252.31 63.6195 252.762 63.6606C253.214 63.7017 253.664 63.5615 254.013 63.2708C254.362 62.9801 254.581 62.5628 254.622 62.1106C254.645 61.8867 254.622 61.6606 254.555 61.4458C254.488 61.231 254.378 61.0319 254.232 60.8606C254.09 60.6854 253.914 60.5403 253.715 60.4339C253.515 60.3274 253.297 60.2617 253.072 60.2406H252.912Z" fill="url(#paint2_linear_7869_60778)"/>
<path d="M171.25 282.78L164.65 277.08L156.58 270.08L148.52 263.08L140.46 256.08L134.46 263.01L128.46 269.95L122.46 276.89L116.46 283.82C116.24 284.078 116.074 284.377 115.97 284.7C115.868 285.023 115.827 285.362 115.85 285.7C115.875 286.027 115.963 286.347 116.11 286.64C116.257 286.948 116.468 287.221 116.73 287.44L128.05 297.22L139.37 307L150.69 316.77L162.01 326.55C162.272 326.775 162.569 326.954 162.89 327.08C163.208 327.21 163.547 327.281 163.89 327.29C164.228 327.303 164.566 327.26 164.89 327.16C165.222 327.058 165.533 326.899 165.81 326.69C166.823 325.93 167.734 325.043 168.52 324.05C169.487 322.849 170.201 321.464 170.62 319.98C171.084 318.162 171.084 316.258 170.62 314.44C169.953 311.883 168.779 309.486 167.17 307.39C166.789 306.872 166.435 306.335 166.11 305.78C165.78 305.22 165.49 304.65 165.22 304.07C164.955 303.488 164.724 302.89 164.53 302.28C164.33 301.671 164.17 301.05 164.05 300.42C163.912 299.724 163.825 299.019 163.79 298.31C163.783 297.602 163.847 296.895 163.98 296.2C164.087 295.461 164.289 294.738 164.58 294.05C164.83 293.37 171.25 282.78 171.25 282.78Z" fill="#2B0660"/>
<path d="M163.98 327.869H163.85C163.456 327.849 163.068 327.768 162.7 327.629C162.335 327.479 161.997 327.269 161.7 327.009L116.43 287.899C116.116 287.622 115.864 287.281 115.69 286.899C115.517 286.549 115.412 286.169 115.38 285.779C115.35 285.387 115.397 284.993 115.52 284.619C115.65 284.231 115.854 283.871 116.12 283.559L140.41 255.439L171.9 282.629L171.68 282.999C169.11 287.239 165.21 293.729 165 294.219C164.725 294.859 164.533 295.531 164.43 296.219C164.328 296.911 164.298 297.612 164.34 298.309C164.373 298.981 164.457 299.65 164.59 300.309C164.703 300.922 164.857 301.527 165.05 302.119C165.242 302.709 165.47 303.287 165.73 303.849C165.984 304.419 166.272 304.973 166.59 305.509C166.9 306.039 167.25 306.569 167.59 307.089C169.238 309.237 170.442 311.691 171.13 314.309C171.594 316.214 171.577 318.204 171.08 320.099C170.642 321.649 169.897 323.094 168.89 324.349C168.076 325.374 167.135 326.292 166.09 327.079C165.767 327.323 165.405 327.509 165.02 327.629C164.687 327.761 164.336 327.842 163.98 327.869ZM140.47 256.869L116.83 284.239C116.653 284.449 116.517 284.69 116.43 284.949C116.348 285.2 116.317 285.464 116.337 285.726C116.358 285.989 116.43 286.245 116.55 286.479C116.666 286.725 116.833 286.943 117.04 287.119L162.33 326.229C162.55 326.419 162.8 326.571 163.07 326.679C163.332 326.781 163.609 326.838 163.89 326.849C164.17 326.857 164.451 326.82 164.72 326.739C164.995 326.658 165.253 326.526 165.48 326.349C166.46 325.617 167.341 324.759 168.1 323.799C169.128 322.531 169.845 321.038 170.192 319.442C170.539 317.846 170.508 316.191 170.1 314.609C169.442 312.119 168.296 309.784 166.73 307.739C166.341 307.209 165.98 306.658 165.65 306.089C165.311 305.525 165.007 304.941 164.74 304.339C164.46 303.739 164.22 303.121 164.02 302.489C163.817 301.86 163.653 301.219 163.53 300.569C163.383 299.851 163.293 299.122 163.26 298.389C163.222 297.628 163.255 296.865 163.36 296.109C163.476 295.332 163.691 294.572 164 293.849C164.28 293.189 169.28 284.919 170.53 282.849L140.47 256.869Z" fill="#2B0660"/>
<path d="M140.852 281.31L137.862 278.74L134.882 276.16L131.902 273.59L128.922 271.01" fill="#F3EBE9"/>
<path d="M140.84 282.071C140.66 282.07 140.487 282.007 140.35 281.891L128.42 271.581C128.346 271.517 128.285 271.439 128.242 271.351C128.198 271.263 128.172 271.168 128.166 271.07C128.159 270.973 128.172 270.875 128.204 270.782C128.235 270.689 128.285 270.604 128.35 270.531C128.476 270.394 128.649 270.31 128.834 270.295C129.02 270.281 129.204 270.336 129.35 270.451L141.28 280.751C141.355 280.815 141.417 280.893 141.461 280.981C141.506 281.069 141.533 281.166 141.54 281.264C141.548 281.363 141.535 281.462 141.505 281.555C141.474 281.649 141.424 281.736 141.36 281.811C141.228 281.963 141.041 282.056 140.84 282.071Z" fill="#F3EBE9"/>
<path d="M146.469 274.509L143.489 271.929L140.509 269.359L137.519 266.779L134.539 264.199" fill="#F3EBE9"/>
<path d="M146.471 275.259C146.292 275.259 146.118 275.195 145.981 275.079L134.051 264.779C133.902 264.648 133.81 264.464 133.795 264.266C133.78 264.068 133.843 263.871 133.971 263.719C134.036 263.644 134.114 263.583 134.202 263.538C134.29 263.493 134.386 263.467 134.485 263.459C134.583 263.452 134.682 263.464 134.776 263.495C134.87 263.526 134.957 263.575 135.031 263.639L146.981 273.939C147.098 274.039 147.181 274.172 147.22 274.321C147.258 274.47 147.25 274.626 147.197 274.77C147.144 274.914 147.047 275.038 146.921 275.126C146.795 275.213 146.645 275.26 146.491 275.259H146.471Z" fill="#F3EBE9"/>
<path d="M159.41 308.709C159.234 308.706 159.064 308.641 158.93 308.526C158.797 308.41 158.709 308.25 158.681 308.076C158.654 307.901 158.689 307.723 158.78 307.571C158.871 307.42 159.013 307.306 159.18 307.249L165.89 305.079C166.08 305.018 166.286 305.035 166.463 305.126C166.641 305.217 166.774 305.374 166.835 305.564C166.896 305.754 166.88 305.96 166.789 306.137C166.698 306.314 166.54 306.448 166.35 306.509L159.64 308.679C159.566 308.7 159.488 308.71 159.41 308.709Z" fill="#F3EBE9"/>
<path d="M157.599 304.02C157.428 304.02 157.263 303.961 157.13 303.854C156.997 303.746 156.905 303.597 156.869 303.43C156.827 303.235 156.863 303.032 156.969 302.864C157.076 302.695 157.245 302.576 157.439 302.53L164.259 301.06C164.454 301.018 164.657 301.054 164.825 301.162C164.993 301.27 165.111 301.44 165.154 301.635C165.196 301.83 165.159 302.034 165.051 302.202C164.944 302.37 164.774 302.488 164.579 302.53L157.759 304L157.599 304.02Z" fill="#F3EBE9"/>
<path d="M175.159 310.06C171.996 309.852 168.951 308.776 166.359 306.95C166.201 306.898 166.066 306.792 165.979 306.65C165.949 306.602 165.922 306.552 165.899 306.5C165.019 305 165.399 303.28 165.709 301.9C165.769 301.61 165.839 301.33 165.889 301.06C165.885 301.03 165.885 301 165.889 300.97C167.019 297.36 168.659 295.27 170.389 295.25C170.853 295.257 171.301 295.418 171.663 295.708C172.025 295.997 172.281 296.399 172.389 296.85C172.999 298.61 172.329 301.46 169.789 304.33C172.789 303.75 176.159 304.13 178.039 306.66C178.101 306.755 178.145 306.86 178.169 306.97C178.337 307.507 178.3 308.087 178.065 308.598C177.831 309.11 177.416 309.516 176.899 309.74C176.348 309.966 175.755 310.075 175.159 310.06ZM168.089 306.38C170.089 307.6 174.589 309.16 176.309 308.38C176.499 308.29 176.839 308.13 176.749 307.38C174.869 305.08 170.899 305.27 168.089 306.38ZM167.349 301.38C167.299 301.65 167.239 301.93 167.169 302.23C166.892 303.142 166.803 304.102 166.909 305.05C170.739 301.88 171.479 298.74 170.999 297.33C170.909 297.06 170.699 296.75 170.429 296.75C169.869 296.76 168.499 297.73 167.349 301.38Z" fill="#2B0660"/>
<path d="M165.821 326.769C165.544 326.978 165.233 327.137 164.901 327.239C164.578 327.339 164.24 327.383 163.901 327.369C163.558 327.36 163.219 327.289 162.901 327.159C162.58 327.033 162.283 326.854 162.021 326.629L150.701 316.849L139.381 307.079L128.081 297.299L116.761 287.519C116.499 287.3 116.288 287.027 116.141 286.719C115.994 286.426 115.906 286.106 115.881 285.779C115.858 285.441 115.899 285.102 116.001 284.779C116.105 284.456 116.271 284.157 116.491 283.899L116.821 283.519L117.161 283.139L117.491 282.749L117.821 282.369L130.231 293.109L142.631 303.839L155.041 314.579L167.451 325.309L167.031 325.719L166.621 326.089L166.211 326.429L165.821 326.769Z" fill="#2B0660"/>
<path d="M163.98 327.87H163.85C163.456 327.85 163.068 327.769 162.7 327.63C162.335 327.479 161.997 327.27 161.7 327.01L116.43 287.9C116.116 287.622 115.864 287.282 115.69 286.9C115.517 286.55 115.412 286.17 115.38 285.78C115.35 285.388 115.397 284.994 115.52 284.62C115.65 284.232 115.854 283.872 116.12 283.56L117.76 281.66L168.19 325.28L167.81 325.66L167.37 326.07L166.95 326.46L166.53 326.81L166.12 327.13C165.797 327.374 165.435 327.56 165.05 327.68C164.705 327.798 164.344 327.862 163.98 327.87ZM117.83 283.11L116.83 284.26C116.653 284.469 116.517 284.71 116.43 284.97C116.348 285.221 116.317 285.485 116.337 285.747C116.358 286.01 116.43 286.266 116.55 286.5C116.666 286.746 116.833 286.964 117.04 287.14L162.33 326.25C162.55 326.439 162.8 326.591 163.07 326.7C163.332 326.802 163.609 326.859 163.89 326.87C164.17 326.878 164.451 326.841 164.72 326.76C164.995 326.679 165.253 326.547 165.48 326.37L165.86 326.07L166.25 325.74C166.38 325.63 166.52 325.51 166.65 325.38L117.83 283.11Z" fill="#F3EBE9"/>
<path d="M261.981 262.12L257.181 255.88L251.321 248.25L245.461 240.62L239.611 233L233.051 238L226.481 243L219.921 248L213.361 253C213.117 253.188 212.913 253.422 212.761 253.69C212.614 253.946 212.519 254.228 212.481 254.52C212.441 254.814 212.461 255.114 212.541 255.4C212.612 255.699 212.749 255.979 212.941 256.22L221.161 266.93L229.381 277.64L237.611 288.35L245.841 299.2C246.032 299.445 246.262 299.658 246.521 299.83C246.78 299.994 247.063 300.116 247.361 300.19C247.656 300.259 247.959 300.282 248.261 300.26C248.569 300.226 248.87 300.142 249.151 300.01C250.184 299.52 251.152 298.902 252.031 298.17C253.107 297.284 253.991 296.189 254.631 294.95C255.389 293.435 255.751 291.753 255.681 290.06C255.555 287.678 254.953 285.346 253.911 283.2C253.671 282.67 253.461 282.13 253.271 281.58C252.898 280.484 252.643 279.35 252.511 278.2C252.449 277.626 252.422 277.048 252.431 276.47C252.432 275.83 252.482 275.192 252.581 274.56C252.679 273.908 252.843 273.268 253.071 272.65C253.299 272.016 253.608 271.414 253.991 270.86C254.381 270.31 261.981 262.12 261.981 262.12Z" fill="#2B0660"/>
<path d="M247.981 300.781C247.721 300.783 247.461 300.749 247.211 300.681C246.855 300.601 246.516 300.459 246.211 300.261C245.904 300.054 245.63 299.801 245.401 299.511L212.511 256.671C212.283 256.373 212.117 256.033 212.021 255.671C211.931 255.321 211.91 254.958 211.961 254.601C212.005 254.248 212.12 253.908 212.301 253.601C212.482 253.273 212.731 252.986 213.031 252.761L239.671 232.301L262.641 262.201L262.351 262.511C259.351 265.791 254.681 270.811 254.401 271.211C254.041 271.727 253.752 272.289 253.541 272.881C253.326 273.471 253.169 274.081 253.071 274.701C252.976 275.31 252.929 275.925 252.931 276.541C252.913 277.095 252.93 277.649 252.981 278.201C253.041 278.755 253.131 279.306 253.251 279.851C253.381 280.391 253.531 280.941 253.711 281.471C253.889 282.009 254.1 282.537 254.341 283.051C255.401 285.259 256.016 287.655 256.151 290.101C256.219 291.718 255.909 293.329 255.244 294.805C254.579 296.281 253.578 297.581 252.321 298.601C251.408 299.365 250.399 300.007 249.321 300.511C248.988 300.672 248.629 300.77 248.261 300.801L247.981 300.781ZM239.491 233.701L213.641 253.551C213.452 253.693 213.295 253.874 213.181 254.081C212.951 254.488 212.886 254.968 213.001 255.421C213.061 255.653 213.166 255.87 213.311 256.061L246.211 298.901C246.364 299.106 246.554 299.282 246.771 299.421C246.98 299.554 247.21 299.652 247.451 299.711C247.689 299.77 247.936 299.791 248.181 299.771C248.433 299.744 248.68 299.677 248.911 299.571C249.903 299.097 250.833 298.502 251.681 297.801C252.698 296.954 253.538 295.914 254.151 294.741C254.87 293.296 255.214 291.693 255.151 290.081C255.024 287.769 254.44 285.505 253.431 283.421C253.181 282.879 252.961 282.325 252.771 281.761C252.575 281.194 252.411 280.616 252.281 280.031C252.151 279.451 252.051 278.851 251.981 278.271C251.919 277.673 251.892 277.072 251.901 276.471C251.901 275.801 251.954 275.132 252.061 274.471C252.164 273.789 252.334 273.119 252.571 272.471C252.816 271.798 253.153 271.162 253.571 270.581C253.941 270.051 259.801 263.721 261.321 262.081L239.491 233.701Z" fill="#2B0660"/>
<path d="M235.371 255.28L233.211 252.46L231.041 249.64L228.871 246.81L226.711 243.99" fill="#F3EBE9"/>
<path d="M235.372 256.03C235.258 256.03 235.145 256.005 235.043 255.954C234.94 255.904 234.851 255.831 234.782 255.74L226.112 244.45C226.046 244.373 225.997 244.282 225.967 244.185C225.937 244.088 225.927 243.986 225.938 243.885C225.949 243.784 225.98 243.686 226.03 243.597C226.08 243.508 226.147 243.431 226.228 243.369C226.309 243.307 226.401 243.263 226.5 243.238C226.598 243.213 226.701 243.208 226.802 243.224C226.902 243.24 226.998 243.276 227.084 243.331C227.17 243.385 227.244 243.456 227.302 243.54L235.982 254.83C236.102 254.988 236.155 255.187 236.129 255.384C236.103 255.581 235.999 255.759 235.842 255.88C235.705 255.979 235.54 256.032 235.372 256.03Z" fill="#F3EBE9"/>
<path d="M241.592 250.29L239.422 247.47L237.262 244.65L235.092 241.82L232.922 239" fill="#F3EBE9"/>
<path d="M241.589 251.04C241.474 251.041 241.36 251.015 241.256 250.965C241.152 250.914 241.061 250.841 240.989 250.75L232.329 239.46C232.208 239.304 232.153 239.105 232.178 238.908C232.202 238.712 232.303 238.533 232.459 238.41C232.619 238.289 232.82 238.236 233.018 238.262C233.217 238.289 233.397 238.392 233.519 238.55L242.179 249.84C242.3 249.998 242.353 250.197 242.326 250.394C242.3 250.591 242.197 250.77 242.039 250.89C241.91 250.988 241.752 251.041 241.589 251.04Z" fill="#F3EBE9"/>
<path d="M246.92 282.969C246.735 282.96 246.56 282.883 246.428 282.752C246.296 282.621 246.218 282.446 246.208 282.26C246.198 282.075 246.257 281.892 246.374 281.748C246.491 281.604 246.657 281.508 246.84 281.479L253.17 280.789C253.268 280.777 253.367 280.784 253.462 280.811C253.556 280.837 253.644 280.883 253.721 280.945C253.798 281.006 253.861 281.083 253.907 281.169C253.954 281.256 253.982 281.351 253.99 281.449C254.013 281.647 253.956 281.845 253.832 282.001C253.709 282.156 253.528 282.257 253.33 282.279L247.01 282.969H246.92Z" fill="#F3EBE9"/>
<path d="M246.18 278.49C245.982 278.49 245.793 278.412 245.653 278.274C245.512 278.135 245.432 277.947 245.43 277.75C245.43 277.552 245.507 277.361 245.645 277.219C245.783 277.077 245.972 276.995 246.17 276.99L252.47 276.93C252.669 276.93 252.859 277.009 253 277.149C253.141 277.29 253.22 277.481 253.22 277.68C253.221 277.778 253.203 277.875 253.166 277.966C253.13 278.057 253.075 278.14 253.007 278.209C252.938 278.279 252.856 278.335 252.765 278.372C252.675 278.41 252.578 278.43 252.48 278.43L246.19 278.49H246.18Z" fill="#F3EBE9"/>
<path d="M261.42 287.129C258.77 287.129 254.56 284.389 253.19 282.649C253.06 282.561 252.959 282.435 252.9 282.289C252.891 282.236 252.891 282.182 252.9 282.129C252.38 280.609 253.04 279.129 253.57 277.979C253.68 277.739 253.79 277.499 253.88 277.269V277.189C255.56 274.189 257.43 272.629 258.98 272.919C259.403 273.016 259.783 273.248 260.063 273.58C260.342 273.912 260.507 274.326 260.53 274.759C260.73 276.419 259.67 278.759 256.99 280.839C259.69 280.919 262.54 281.899 263.71 284.449C263.758 284.549 263.782 284.658 263.78 284.769C263.824 285.289 263.678 285.808 263.37 286.229C263.061 286.65 262.61 286.945 262.1 287.059C261.877 287.108 261.649 287.132 261.42 287.129ZM255.04 282.449C256.67 283.879 260.21 285.959 261.77 285.599C261.94 285.599 262.22 285.499 262.27 284.919C261.07 282.599 257.68 282.039 255.04 282.449ZM255.21 277.879L254.9 278.599C254.521 279.313 254.27 280.088 254.16 280.889C257.98 278.819 259.16 276.199 259.04 274.949C259.04 274.759 258.94 274.439 258.69 274.389C258.11 274.259 256.75 275.129 255.21 277.879Z" fill="#2B0660"/>
<path d="M249.15 300.019C248.869 300.151 248.568 300.235 248.26 300.269C247.958 300.291 247.655 300.268 247.36 300.199C247.062 300.125 246.779 300.003 246.52 299.839C246.261 299.667 246.031 299.454 245.84 299.209L237.62 288.499L229.39 277.789L221.17 267.079L212.98 256.369C212.788 256.129 212.651 255.849 212.58 255.549C212.5 255.263 212.48 254.963 212.52 254.669C212.558 254.377 212.653 254.095 212.8 253.839C212.952 253.572 213.156 253.337 213.4 253.149L213.76 252.869L214.12 252.589L214.49 252.309L214.85 252.039L223.85 263.789L232.85 275.549L241.85 287.299L250.85 299.049L250.4 299.339L249.97 299.589L249.55 299.819L249.15 300.019Z" fill="#2B0660"/>
<path d="M247.981 300.78C247.721 300.781 247.461 300.748 247.211 300.68C246.855 300.6 246.516 300.458 246.211 300.26C245.904 300.053 245.63 299.8 245.401 299.51L212.511 256.67C212.283 256.371 212.117 256.032 212.021 255.67C211.931 255.32 211.91 254.957 211.961 254.6C212.005 254.247 212.12 253.906 212.301 253.6C212.482 253.271 212.731 252.985 213.031 252.76L214.871 251.35L251.581 299.2L251.131 299.49L250.681 299.78L250.221 300.05L249.791 300.28L249.371 300.49C249.038 300.651 248.679 300.749 248.311 300.78H247.981ZM214.701 252.78L213.641 253.59C213.452 253.732 213.295 253.913 213.181 254.12C212.951 254.527 212.886 255.006 213.001 255.46C213.061 255.691 213.166 255.909 213.311 256.1L246.211 298.94C246.364 299.145 246.554 299.321 246.771 299.46C246.98 299.592 247.21 299.69 247.451 299.75C247.689 299.809 247.936 299.829 248.181 299.81C248.433 299.783 248.68 299.716 248.911 299.61L249.301 299.41L249.701 299.19C249.841 299.12 249.971 299.04 250.101 298.96L214.701 252.78Z" fill="#F3EBE9"/>
<mask id="mask0_7869_60778" style="mask-type:luminance" maskUnits="userSpaceOnUse" x="137" y="130" width="191" height="154">
<path d="M313.21 214.04C328.33 198.21 332.47 177.67 321.75 162.79C317.396 156.897 311.192 152.633 304.13 150.68L283.23 144.68C283.36 144.27 267.41 140.86 267.51 140.5L267.21 140.21L221.92 130.43C221.92 130.43 148.11 237.57 138.46 251.1C138.031 251.697 137.843 252.433 137.932 253.163C138.021 253.893 138.381 254.563 138.94 255.04L170.85 282.45C171.46 282.955 172.245 283.198 173.034 283.127C173.822 283.056 174.551 282.676 175.06 282.07C186.75 267.62 248.31 191.43 250.06 186.87L272.5 192.2C272.5 192.2 246.55 220.38 239.74 228.38C239.261 228.949 238.987 229.662 238.961 230.405C238.936 231.149 239.161 231.879 239.6 232.48L261.71 262.6C261.996 262.99 262.364 263.313 262.788 263.545C263.213 263.778 263.683 263.914 264.165 263.945C264.648 263.975 265.132 263.899 265.582 263.722C266.032 263.545 266.438 263.271 266.77 262.92C275.36 253.83 301.98 225.83 313.21 214.04ZM270.98 191.82L278.34 190.4C277.9 191.26 271.5 190.89 270.98 191.82Z" fill="white"/>
</mask>
<g mask="url(#mask0_7869_60778)">
<path d="M313.21 214.041C328.33 198.211 332.47 177.671 321.75 162.791C317.396 156.898 311.192 152.634 304.13 150.681L283.23 144.681C283.36 144.271 267.41 140.861 267.51 140.501L267.21 140.211L222.46 133.561C222.46 133.561 148.11 237.561 138.46 251.111C138.031 251.708 137.843 252.444 137.932 253.174C138.021 253.904 138.381 254.574 138.94 255.051L170.85 282.461C171.46 282.966 172.245 283.209 173.034 283.138C173.822 283.067 174.551 282.687 175.06 282.081C186.75 267.631 248.31 191.441 250.06 186.881L272.5 192.201C272.5 192.201 246.55 220.381 239.74 228.381C239.261 228.949 238.987 229.663 238.961 230.406C238.936 231.15 239.161 231.88 239.6 232.481L261.71 262.601C261.996 262.991 262.364 263.314 262.788 263.546C263.213 263.779 263.683 263.915 264.165 263.945C264.648 263.976 265.132 263.9 265.582 263.723C266.032 263.546 266.438 263.272 266.77 262.921C275.36 253.831 301.98 225.831 313.21 214.041ZM270.98 191.821L278.34 190.401C277.9 191.261 271.5 190.891 270.98 191.821Z" fill="url(#paint3_linear_7869_60778)"/>
<path d="M244.98 196.2C244.83 196.202 244.683 196.156 244.56 196.07C244.405 195.961 244.297 195.797 244.258 195.611C244.219 195.426 244.252 195.232 244.35 195.07L261.65 169.2C261.758 169.043 261.922 168.934 262.108 168.895C262.294 168.856 262.488 168.89 262.65 168.99C262.803 169.101 262.909 169.265 262.946 169.451C262.983 169.636 262.949 169.829 262.85 169.99L245.57 195.81C245.511 195.919 245.427 196.011 245.324 196.079C245.221 196.147 245.103 196.189 244.98 196.2Z" fill="#2B0660"/>
</g>
<path d="M267.659 198.74C267.519 198.737 267.382 198.695 267.264 198.62C267.146 198.544 267.051 198.437 266.99 198.311C266.929 198.184 266.904 198.043 266.918 197.904C266.932 197.764 266.984 197.631 267.069 197.52L270.129 193.75C272.461 190.715 274.627 187.557 276.619 184.29C276.723 184.118 276.89 183.995 277.084 183.948C277.278 183.9 277.483 183.931 277.654 184.035C277.825 184.138 277.948 184.305 277.996 184.499C278.044 184.693 278.013 184.898 277.909 185.07C275.879 188.394 273.669 191.605 271.289 194.69L268.239 198.46C268.169 198.546 268.081 198.617 267.981 198.665C267.88 198.713 267.771 198.739 267.659 198.74Z" fill="#2B0660"/>
<path d="M191.539 149.08L185.399 154.08L179.259 159.08C179.169 159.37 179.059 159.67 178.939 159.97C178.819 160.27 178.709 160.58 178.569 160.89C178.429 161.2 178.299 161.51 178.149 161.83C177.999 162.15 177.849 162.46 177.679 162.83C177.372 163.41 177.039 163.97 176.679 164.51C176.349 165.04 176.009 165.51 175.679 166.04C175.349 166.57 174.979 166.98 174.619 167.42C174.259 167.86 173.899 168.27 173.549 168.66C173.009 169.24 172.469 169.83 171.939 170.43C171.409 171.03 170.889 171.62 170.379 172.23C169.869 172.84 169.379 173.45 168.849 174.06C168.319 174.67 167.849 175.3 167.359 175.93C167.139 176.21 166.939 176.47 166.739 176.69C166.539 176.91 166.369 177.12 166.199 177.29C166.057 177.442 165.906 177.585 165.749 177.72C165.635 177.815 165.511 177.895 165.379 177.96C165.238 178.027 165.09 178.077 164.939 178.11C164.819 178.119 164.699 178.119 164.579 178.11H164.249C164.159 178.091 164.071 178.061 163.989 178.02L163.779 177.91L163.599 177.78L163.469 177.65C163.365 177.595 163.274 177.52 163.199 177.43C163 177.219 162.864 176.955 162.809 176.67C162.738 176.174 162.796 175.668 162.979 175.2C163.278 174.365 163.706 173.582 164.249 172.88C164.249 172.88 164.479 172.56 164.779 172.08C165.139 171.51 165.447 170.907 165.699 170.28C165.967 169.689 166.067 169.035 165.989 168.39C165.922 168.088 165.755 167.818 165.515 167.622C165.276 167.426 164.978 167.316 164.669 167.31C164.472 167.296 164.275 167.296 164.079 167.31C163.88 167.322 163.683 167.348 163.489 167.39C163.299 167.44 163.112 167.5 162.929 167.57C162.745 167.65 162.568 167.743 162.399 167.85L160.149 169.2L157.979 170.58L155.749 171.96L153.529 173.34L153.389 173.43L153.229 173.54L153.049 173.66L152.839 173.79C152.569 173.94 152.329 174.09 152.099 174.21C151.869 174.33 151.649 174.45 151.449 174.54C151.255 174.618 151.054 174.675 150.849 174.71C150.661 174.75 150.467 174.75 150.279 174.71C150.2 174.701 150.122 174.681 150.049 174.65C149.926 174.612 149.808 174.559 149.699 174.49C149.553 174.395 149.416 174.288 149.289 174.17C149.123 174.01 148.976 173.833 148.849 173.64C148.495 173.953 148.106 174.221 147.689 174.44C147.322 174.638 146.928 174.78 146.519 174.86C146.165 174.925 145.802 174.925 145.449 174.86C145.132 174.819 144.831 174.702 144.569 174.52L144.389 174.37C144.316 174.31 144.252 174.239 144.199 174.16C144.122 174.068 144.055 173.967 143.999 173.86C143.939 173.74 143.879 173.61 143.819 173.46C143.626 173.49 143.431 173.49 143.239 173.46C143.05 173.44 142.864 173.393 142.689 173.32C142.517 173.242 142.358 173.137 142.219 173.01C142.072 172.876 141.95 172.717 141.859 172.54C141.769 172.368 141.708 172.182 141.679 171.99C141.644 171.799 141.644 171.602 141.679 171.41C141.711 171.219 141.779 171.036 141.879 170.87C141.974 170.696 142.103 170.543 142.259 170.42L142.759 170.07L143.269 169.73L143.769 169.39L144.279 169.05C144.198 168.974 144.125 168.89 144.059 168.8C143.905 168.587 143.802 168.34 143.759 168.08C143.695 167.702 143.754 167.313 143.929 166.97C144.223 166.406 144.636 165.911 145.139 165.52L146.139 164.7C146.459 164.42 146.789 164.15 147.139 163.88L148.139 163.05L149.139 162.21L152.369 159.32L155.599 156.44L158.829 153.56L162.059 150.68C162.569 150.22 163.059 149.76 163.559 149.29C164.059 148.82 164.559 148.34 165.009 147.85C165.459 147.36 165.949 146.85 166.409 146.37C166.869 145.89 167.319 145.37 167.759 144.83L172.759 138.9" fill="#D667E1"/>
<path d="M164.539 178.9H164.299H164.129C163.988 178.872 163.851 178.828 163.719 178.77L163.399 178.6L163.149 178.41L163.029 178.31C162.899 178.223 162.782 178.119 162.679 178C162.393 177.688 162.196 177.304 162.109 176.89C161.995 176.272 162.043 175.634 162.249 175.04C162.565 174.124 163.027 173.266 163.619 172.5C163.619 172.5 163.849 172.19 164.119 171.75C164.449 171.213 164.736 170.651 164.979 170.07C165.194 169.615 165.284 169.111 165.239 168.61C165.239 168.47 165.149 168.2 164.529 168.11C164.383 168.095 164.236 168.095 164.089 168.11C163.937 168.119 163.787 168.142 163.639 168.18C163.488 168.211 163.341 168.258 163.199 168.32C163.051 168.38 162.908 168.45 162.769 168.53L153.169 174.53L152.409 174.97C152.149 175.11 151.909 175.23 151.679 175.33C151.437 175.436 151.181 175.51 150.919 175.55C150.645 175.6 150.364 175.6 150.089 175.55C149.973 175.532 149.859 175.501 149.749 175.46C149.58 175.404 149.419 175.327 149.269 175.23C149.073 175.112 148.888 174.975 148.719 174.82C148.491 174.976 148.254 175.12 148.009 175.25C147.58 175.475 147.123 175.639 146.649 175.74C146.206 175.819 145.753 175.819 145.309 175.74C144.879 175.678 144.468 175.517 144.109 175.27C144.021 175.207 143.937 175.136 143.859 175.06C143.762 174.967 143.672 174.866 143.589 174.76C143.494 174.649 143.41 174.529 143.339 174.4H143.149C142.88 174.37 142.617 174.299 142.369 174.19C142.121 174.08 141.891 173.932 141.689 173.75C141.481 173.559 141.308 173.332 141.179 173.08C140.917 172.583 140.833 172.012 140.939 171.46C140.991 171.189 141.089 170.928 141.229 170.69C141.369 170.44 141.552 170.217 141.769 170.03L143.219 169.03C143.12 168.825 143.052 168.606 143.019 168.38C142.934 167.849 143.014 167.304 143.249 166.82C143.595 166.158 144.075 165.575 144.659 165.11L146.659 163.47L147.659 162.65L148.609 161.82L161.429 150.2C161.929 149.75 162.429 149.29 162.909 148.83C163.389 148.37 163.909 147.89 164.339 147.41C164.769 146.93 165.269 146.41 165.719 145.94C166.169 145.47 166.619 144.94 167.049 144.43L172.049 138.49C172.113 138.415 172.19 138.354 172.277 138.309C172.365 138.265 172.46 138.238 172.558 138.231C172.655 138.223 172.754 138.235 172.846 138.266C172.939 138.297 173.025 138.346 173.099 138.41C173.237 138.535 173.323 138.707 173.34 138.892C173.357 139.078 173.303 139.263 173.189 139.41L168.189 145.35C167.739 145.88 167.289 146.35 166.819 146.9C166.349 147.45 165.889 147.9 165.409 148.41C164.929 148.92 164.409 149.41 163.939 149.86C163.469 150.31 162.939 150.81 162.419 151.27L149.499 162.8L148.499 163.65L147.499 164.48L145.499 166.12C145.086 166.446 144.746 166.855 144.499 167.32C144.393 167.526 144.354 167.761 144.389 167.99C144.408 168.132 144.463 168.266 144.549 168.38L144.659 168.51C144.745 168.585 144.813 168.68 144.856 168.786C144.899 168.892 144.918 169.006 144.909 169.12C144.904 169.235 144.872 169.347 144.817 169.447C144.761 169.548 144.684 169.634 144.589 169.7L142.589 171.07C142.531 171.133 142.48 171.204 142.439 171.28C142.379 171.371 142.338 171.473 142.319 171.58C142.304 171.69 142.304 171.801 142.319 171.91C142.336 172.022 142.374 172.131 142.429 172.23C142.478 172.324 142.542 172.408 142.619 172.48C142.7 172.558 142.795 172.619 142.899 172.66C142.996 172.708 143.102 172.735 143.209 172.74C143.318 172.76 143.43 172.76 143.539 172.74C143.721 172.692 143.914 172.715 144.079 172.804C144.244 172.893 144.37 173.042 144.429 173.22C144.465 173.32 144.508 173.417 144.559 173.51C144.595 173.582 144.638 173.649 144.689 173.71L144.809 173.84L144.909 173.92C145.072 174.036 145.261 174.108 145.459 174.13C145.727 174.179 146.002 174.179 146.269 174.13C146.617 174.057 146.953 173.94 147.269 173.78C147.627 173.584 147.962 173.349 148.269 173.08C148.349 173.01 148.443 172.958 148.545 172.927C148.647 172.896 148.754 172.886 148.859 172.9C148.965 172.914 149.066 172.95 149.157 173.005C149.249 173.06 149.328 173.133 149.389 173.22C149.484 173.369 149.594 173.506 149.719 173.63C149.805 173.712 149.899 173.786 149.999 173.85C150.062 173.888 150.129 173.919 150.199 173.94H150.319C150.425 173.96 150.534 173.96 150.639 173.94C150.788 173.916 150.932 173.872 151.069 173.81C151.268 173.727 151.461 173.634 151.649 173.53L152.349 173.12L161.939 167.12C162.143 166.992 162.357 166.882 162.579 166.79C162.801 166.702 163.028 166.628 163.259 166.57C163.499 166.516 163.744 166.486 163.989 166.48C164.232 166.45 164.477 166.45 164.719 166.48C165.191 166.496 165.644 166.669 166.006 166.972C166.368 167.274 166.619 167.689 166.719 168.15C166.83 168.937 166.712 169.739 166.379 170.46C166.103 171.128 165.768 171.77 165.379 172.38C165.059 172.9 164.809 173.23 164.809 173.23C164.319 173.869 163.931 174.581 163.659 175.34C163.535 175.686 163.497 176.056 163.549 176.42C163.58 176.574 163.653 176.716 163.759 176.83C163.784 176.862 163.815 176.889 163.849 176.91L164.019 177.04L164.089 177.11L164.189 177.19L164.299 177.24H164.429H164.569H164.789C164.888 177.214 164.985 177.181 165.079 177.14C165.15 177.099 165.217 177.052 165.279 177C165.399 176.9 165.529 176.78 165.679 176.63L166.179 176.07C166.369 175.85 166.569 175.6 166.779 175.34C167.269 174.7 167.779 174.07 168.269 173.45C168.759 172.83 169.269 172.21 169.819 171.6C170.369 170.99 170.819 170.39 171.389 169.79L172.999 168.01C173.346 167.63 173.679 167.23 173.999 166.81C174.349 166.38 174.689 165.93 174.999 165.46C175.309 164.99 175.659 164.46 175.999 163.98C176.339 163.5 176.639 162.89 176.919 162.34C177.089 162.03 177.239 161.71 177.389 161.41C177.539 161.11 177.669 160.79 177.789 160.49C177.909 160.19 178.039 159.89 178.149 159.6C178.259 159.31 178.369 159.02 178.469 158.74C178.511 158.607 178.591 158.488 178.699 158.4L190.979 148.4C191.056 148.334 191.144 148.284 191.239 148.253C191.335 148.221 191.436 148.209 191.536 148.216C191.636 148.224 191.734 148.251 191.824 148.296C191.914 148.341 191.994 148.404 192.059 148.48C192.125 148.556 192.175 148.645 192.207 148.74C192.238 148.836 192.25 148.936 192.243 149.037C192.236 149.137 192.209 149.235 192.163 149.325C192.118 149.414 192.056 149.494 191.979 149.56L179.859 159.46C179.779 159.69 179.699 159.93 179.599 160.17C179.499 160.41 179.359 160.79 179.229 161.11C179.099 161.43 178.949 161.75 178.789 162.11C178.629 162.47 178.479 162.76 178.299 163.11C177.999 163.7 177.669 164.28 177.299 164.84C176.929 165.4 176.609 165.92 176.299 166.41C175.989 166.9 175.579 167.41 175.209 167.83C174.839 168.25 174.479 168.71 174.109 169.11C173.569 169.69 173.039 170.27 172.519 170.87C171.999 171.47 171.469 172.06 170.959 172.66C170.449 173.26 169.959 173.87 169.439 174.48C168.919 175.09 168.439 175.71 167.959 176.33C167.739 176.62 167.529 176.88 167.329 177.12C167.129 177.36 166.929 177.58 166.749 177.76C166.569 177.94 166.379 178.11 166.229 178.24C166.071 178.375 165.897 178.49 165.709 178.58C165.522 178.67 165.323 178.738 165.119 178.78C164.958 178.815 164.794 178.838 164.629 178.85L164.539 178.9Z" fill="#2B0660"/>
<path d="M144.249 169.629C144.169 169.628 144.091 169.608 144.02 169.572C143.949 169.536 143.887 169.483 143.839 169.419C143.764 169.31 143.735 169.176 143.757 169.045C143.78 168.914 143.852 168.797 143.959 168.719L152.269 162.829C152.322 162.784 152.383 162.75 152.45 162.73C152.516 162.71 152.586 162.704 152.655 162.713C152.723 162.721 152.79 162.744 152.849 162.779C152.909 162.814 152.961 162.862 153.001 162.918C153.041 162.974 153.069 163.038 153.084 163.106C153.098 163.174 153.098 163.244 153.084 163.312C153.069 163.38 153.041 163.444 153.001 163.5C152.96 163.557 152.909 163.604 152.849 163.639L144.539 169.529C144.457 169.595 144.354 169.63 144.249 169.629Z" fill="#32477C"/>
<path d="M143.77 174C143.691 173.999 143.614 173.98 143.544 173.943C143.475 173.907 143.415 173.854 143.37 173.79C143.331 173.736 143.303 173.676 143.288 173.612C143.272 173.548 143.269 173.482 143.279 173.417C143.29 173.352 143.313 173.289 143.347 173.233C143.381 173.177 143.427 173.128 143.48 173.09L154.2 165.2C154.253 165.161 154.313 165.133 154.377 165.118C154.441 165.102 154.508 165.099 154.573 165.11C154.638 165.12 154.7 165.143 154.756 165.177C154.812 165.211 154.861 165.256 154.9 165.31C154.939 165.363 154.967 165.423 154.982 165.487C154.997 165.551 155 165.617 154.99 165.682C154.98 165.747 154.957 165.81 154.922 165.866C154.888 165.922 154.843 165.971 154.79 166.01L144.07 173.88C143.987 173.954 143.881 173.996 143.77 174Z" fill="#32477C"/>
<path d="M148.979 173.951C148.9 173.951 148.822 173.934 148.751 173.899C148.679 173.864 148.617 173.814 148.569 173.751C148.493 173.642 148.462 173.509 148.483 173.378C148.503 173.248 148.574 173.13 148.679 173.051L156.299 167.491C156.405 167.411 156.539 167.377 156.67 167.396C156.801 167.414 156.92 167.485 156.999 167.591C157.075 167.699 157.106 167.832 157.086 167.963C157.065 168.093 156.995 168.211 156.889 168.291L149.269 173.861C149.184 173.919 149.083 173.95 148.979 173.951Z" fill="#32477C"/>
<path d="M353.709 51.6405C352.413 52.4877 350.847 52.8195 349.319 52.5705C349.139 52.8105 344.319 57.7805 341.809 60.5705L329.809 43.8705C336.369 38.2605 344.459 32.4405 349.519 29.7005C359.519 24.2905 365.089 21.9805 366.519 22.7005C366.63 22.7467 366.727 22.8222 366.799 22.919C366.872 23.0158 366.916 23.1304 366.929 23.2505C367.399 25.8805 359.109 30.9005 355.569 32.9905C359.049 30.9305 364.779 42.3705 363.569 45.2705C362.379 47.8205 355.799 50.5105 353.709 51.6405Z" fill="#D667E1"/>
<path d="M341.719 61.7793L328.719 43.7793L329.249 43.3293C335.859 37.6793 344.029 31.8093 349.089 29.0693C362.519 21.7993 365.559 21.4393 366.759 22.0693C366.98 22.1682 367.172 22.3239 367.314 22.5205C367.456 22.7172 367.544 22.9478 367.569 23.1893C367.979 25.1993 364.979 28.0993 357.909 32.4193C358.295 32.6367 358.654 32.8984 358.979 33.1993C361.979 35.7993 365.259 42.8893 364.149 45.5693C363.149 47.8793 358.649 50.0393 355.689 51.4693C355.009 51.7993 354.429 52.0793 354.019 52.2993C352.68 53.1311 351.11 53.513 349.539 53.3893L348.219 54.7693C346.509 56.5693 343.929 59.2793 342.299 61.0893L341.719 61.7793ZM330.769 44.0093L341.849 59.3993C343.469 57.6193 345.659 55.3193 347.169 53.7393L348.609 52.2193L349.029 51.7093L349.539 51.8593C350.873 52.027 352.223 51.7151 353.349 50.9793C353.769 50.7493 354.349 50.4593 355.079 50.1193C357.509 48.9493 362.019 46.7593 362.809 44.9793C363.599 43.1993 360.889 36.8093 358.029 34.3293C357.139 33.5593 356.409 33.3293 355.869 33.6393L355.109 32.3493C365.689 26.1193 366.209 23.9193 366.109 23.3493C365.579 23.0693 362.959 23.2193 349.829 30.3493C344.979 33.0093 337.209 38.5593 330.769 44.0093Z" fill="#2B0660"/>
<path d="M364.609 40.4903C364.609 40.4903 366.449 41.6503 365.089 44.1303C364.511 45.187 363.842 46.1909 363.089 47.1303C362.409 47.9903 361.669 49.1303 360.539 49.4003C360.245 49.4778 359.938 49.492 359.638 49.442C359.338 49.392 359.052 49.279 358.799 49.1103C358.46 48.8813 358.195 48.5593 358.036 48.1832C357.876 47.8071 357.829 47.3929 357.899 46.9903C358.215 45.2002 359.065 43.5477 360.339 42.2503C361.148 41.3307 362.208 40.6669 363.389 40.3403C363.8 40.2313 364.237 40.2851 364.609 40.4903Z" fill="#D667E1"/>
<path d="M359.98 50.2694C359.408 50.266 358.85 50.0995 358.37 49.7894C357.913 49.4844 357.553 49.0546 357.334 48.5512C357.114 48.0478 357.043 47.4919 357.13 46.9494C357.464 44.9956 358.388 43.1912 359.78 41.7794C360.693 40.7553 361.885 40.0187 363.21 39.6594C363.81 39.4912 364.452 39.5629 365 39.8594C365.84 40.3894 367.07 42.0394 365.73 44.4894C365.135 45.5988 364.442 46.653 363.66 47.6394L363.41 47.9594C362.779 48.9709 361.834 49.7473 360.72 50.1694C360.479 50.2377 360.23 50.2713 359.98 50.2694ZM363.98 41.0694C363.838 41.0751 363.697 41.0952 363.56 41.1294C362.529 41.425 361.605 42.0118 360.9 42.8194C359.73 43.9949 358.946 45.4979 358.65 47.1294C358.604 47.3952 358.634 47.6687 358.736 47.9182C358.839 48.1677 359.01 48.3831 359.23 48.5394C359.395 48.6468 359.581 48.7182 359.776 48.7492C359.97 48.7802 360.169 48.7701 360.36 48.7194C361.148 48.3643 361.811 47.7785 362.26 47.0394L362.52 46.7094C363.246 45.7865 363.892 44.8029 364.45 43.7694C365.45 41.9294 364.27 41.1494 364.22 41.1194C364.146 41.0804 364.063 41.063 363.98 41.0694Z" fill="#2B0660"/>
<path d="M362.43 35.8398C362.43 35.8398 365.28 36.9098 364.49 38.9698C363.7 41.0298 360.58 44.9698 358.68 45.2698C356.78 45.5698 355.73 44.4998 355.68 41.8998C355.63 39.2998 362.43 35.8398 362.43 35.8398Z" fill="#D667E1"/>
<path d="M358.06 46.0794C357.385 46.1017 356.724 45.8778 356.2 45.4494C355.752 44.9815 355.41 44.4216 355.2 43.8086C354.989 43.1956 354.914 42.5441 354.98 41.8994C354.98 38.9894 360.9 35.7894 362.09 35.1694C362.187 35.1272 362.29 35.1055 362.395 35.1055C362.5 35.1055 362.604 35.1272 362.7 35.1694C363.743 35.5515 364.615 36.2924 365.16 37.2594C365.295 37.5755 365.365 37.9157 365.365 38.2594C365.365 38.603 365.295 38.9432 365.16 39.2594C364.38 41.3394 361.16 45.6294 358.78 46.0294C358.542 46.0677 358.301 46.0844 358.06 46.0794ZM362.45 36.6694C359.86 38.0594 356.45 40.4794 356.45 41.8994C356.398 42.326 356.433 42.7587 356.554 43.1713C356.674 43.5839 356.877 43.9677 357.15 44.2994C357.349 44.4384 357.575 44.5312 357.814 44.571C358.053 44.6108 358.298 44.5966 358.53 44.5294C360.01 44.2794 363 40.7394 363.77 38.7094C363.834 38.575 363.868 38.4281 363.868 38.2794C363.868 38.1306 363.834 37.9837 363.77 37.8494C363.459 37.3322 362.999 36.9209 362.45 36.6694Z" fill="#2B0660"/>
<path d="M359.589 31.0304C359.23 31.1716 358.919 31.4107 358.689 31.7203C357.689 33.0303 354.689 37.2904 354.369 38.9204C353.999 40.8604 353.449 42.4504 355.149 42.8604C356.609 43.2204 361.559 39.1204 362.979 36.0704C363.188 35.6583 363.317 35.2104 363.359 34.7504C363.529 32.0204 361.619 30.2004 359.589 31.0304Z" fill="#D667E1"/>
<path d="M355.309 43.6294C355.196 43.6453 355.081 43.6453 354.969 43.6294C352.759 43.0894 353.169 41.0694 353.509 39.4394L353.629 38.8194C353.949 37.1394 356.559 33.3994 358.089 31.3194C358.387 30.8688 358.817 30.52 359.319 30.3194C359.828 30.1104 360.383 30.0365 360.93 30.1048C361.476 30.1731 361.996 30.3814 362.439 30.7094C363.035 31.1943 363.5 31.8209 363.792 32.5318C364.083 33.2428 364.192 34.0155 364.109 34.7794C364.059 35.3359 363.906 35.8784 363.659 36.3794C362.289 39.3394 357.559 43.6294 355.309 43.6294ZM360.549 31.6294C360.313 31.6297 360.079 31.6738 359.859 31.7594C359.631 31.855 359.434 32.0105 359.289 32.2094C356.929 35.4194 355.289 38.1294 355.099 39.0994L354.979 39.7394C354.559 41.7394 354.669 42.0194 355.319 42.1694C356.319 42.3194 360.929 38.7494 362.319 35.7994C362.49 35.4696 362.595 35.1095 362.629 34.7394C362.698 34.2268 362.638 33.705 362.455 33.2214C362.271 32.7377 361.97 32.3074 361.579 31.9694C361.288 31.7296 360.925 31.5956 360.549 31.5894V31.6294Z" fill="#2B0660"/>
<path d="M344.76 32.9597C344.76 32.9597 359.7 29.1597 359.24 34.8697C358.96 38.5697 349.75 39.1197 349.75 39.1197C349.75 39.1197 351.53 44.6197 343.75 47.7097" fill="#D667E1"/>
<path d="M343.761 48.4598C343.585 48.4624 343.413 48.4029 343.277 48.2918C343.14 48.1806 343.047 48.025 343.014 47.8521C342.98 47.6791 343.009 47.5 343.094 47.346C343.18 47.192 343.317 47.073 343.481 47.0098C350.481 44.2098 349.061 39.3998 349.041 39.3498C349.005 39.2413 348.995 39.1257 349.012 39.0127C349.03 38.8997 349.074 38.7924 349.141 38.6998C349.206 38.606 349.29 38.5278 349.389 38.4708C349.487 38.4137 349.597 38.3792 349.711 38.3698C351.931 38.2398 358.311 37.2998 358.491 34.8098C358.531 34.5496 358.502 34.2835 358.407 34.038C358.312 33.7924 358.155 33.5758 357.951 33.4098C355.691 31.4998 347.801 32.9598 344.951 33.6798C344.854 33.7041 344.753 33.709 344.654 33.6942C344.555 33.6795 344.459 33.6454 344.373 33.5939C344.288 33.5423 344.213 33.4744 344.153 33.3939C344.093 33.3134 344.05 33.222 344.026 33.1248C344.002 33.0276 343.997 32.9266 344.011 32.8275C344.026 32.7284 344.06 32.6332 344.112 32.5473C344.163 32.4614 344.231 32.3865 344.312 32.3269C344.392 32.2673 344.484 32.2241 344.581 32.1998C345.701 31.9098 355.671 29.4798 358.921 32.1998C359.316 32.5263 359.621 32.9487 359.807 33.4266C359.992 33.9046 360.052 34.4221 359.981 34.9298C359.701 38.5698 353.101 39.5598 350.621 39.7998C350.801 41.6498 350.421 45.8598 344.021 48.4098C343.937 48.4398 343.85 48.4566 343.761 48.4598Z" fill="#2B0660"/>
<path d="M222.332 133.891C222.272 134.031 222.222 134.171 222.172 134.301L222.332 133.891Z" fill="#2B0660"/>
<path d="M222.142 134.391L221.832 135.181C221.982 134.901 222.052 134.631 222.142 134.391Z" fill="#2B0660"/>
<path d="M221.742 135.42C221.602 135.79 221.462 136.13 221.352 136.42L221.742 135.42Z" fill="#2B0660"/>
<path d="M327.461 37.5098L275.461 77.6798L275.411 76.1098L268.011 74.2898C265.718 73.7278 263.458 73.0401 261.241 72.2298L254.481 69.7698C254.481 69.7698 254.931 73.6698 253.621 73.9298C252.861 74.1763 252.069 74.3078 251.271 74.3198C245.961 73.9768 240.71 75.592 236.511 78.8598C236.271 79.0498 235.981 79.2998 235.641 79.5898C220.551 90.5898 162.641 137.46 162.641 137.46C162.641 137.46 168.951 145.88 176.281 151.35C180.443 154.432 185.063 156.845 189.971 158.5C190.131 158.56 190.241 158.7 190.371 158.58C196.591 152.84 209.831 141.95 222.991 131.34C222.925 132.093 222.768 132.835 222.521 133.55C229.331 137.88 270.741 146.98 270.741 146.98C270.741 146.98 273.261 141.57 275.791 136.16C279.221 128.82 283.481 121.74 285.051 113.71C285.351 112.2 285.571 110.71 285.731 109.14C301.681 97.2298 344.731 65.0798 346.301 63.5798C352.211 57.9698 327.461 37.5098 327.461 37.5098Z" fill="#2B0660"/>
<path d="M255.544 103.606L213.508 138.592L214.148 139.36L256.183 104.375L255.544 103.606Z" fill="#F3EBE9"/>
<path d="M286.062 112.811L285.062 112.531C287.872 103.211 284.282 93.9407 284.242 93.8407L285.172 93.4707C285.362 93.8607 288.982 103.201 286.062 112.811Z" fill="#F3EBE9"/>
</g>
<g clip-path="url(#clip1_7869_60778)">
<g opacity="0.3">
<path d="M352.109 330.94C351.844 330.94 351.59 330.834 351.402 330.647C351.215 330.459 351.109 330.205 351.109 329.94V193.26C351.109 192.995 351.215 192.74 351.402 192.553C351.59 192.365 351.844 192.26 352.109 192.26C352.375 192.26 352.629 192.365 352.816 192.553C353.004 192.74 353.109 192.995 353.109 193.26V329.94C353.109 330.205 353.004 330.459 352.816 330.647C352.629 330.834 352.375 330.94 352.109 330.94Z" fill="url(#paint4_linear_7869_60778)"/>
<path d="M321 330.94C320.735 330.94 320.48 330.834 320.293 330.647C320.105 330.459 320 330.205 320 329.94V193.26C320 192.995 320.105 192.74 320.293 192.553C320.48 192.365 320.735 192.26 321 192.26C321.265 192.26 321.52 192.365 321.707 192.553C321.895 192.74 322 192.995 322 193.26V329.94C322 330.205 321.895 330.459 321.707 330.647C321.52 330.834 321.265 330.94 321 330.94Z" fill="url(#paint5_linear_7869_60778)"/>
<path d="M448.867 247H293.207C292.942 247 292.687 246.895 292.5 246.707C292.312 246.52 292.207 246.265 292.207 246C292.207 245.735 292.312 245.48 292.5 245.293C292.687 245.105 292.942 245 293.207 245H448.867C449.132 245 449.387 245.105 449.574 245.293C449.762 245.48 449.867 245.735 449.867 246C449.867 246.265 449.762 246.52 449.574 246.707C449.387 246.895 449.132 247 448.867 247Z" fill="url(#paint6_linear_7869_60778)"/>
<path d="M448.867 210.35H293.207C292.942 210.35 292.687 210.244 292.5 210.057C292.312 209.869 292.207 209.615 292.207 209.35C292.207 209.084 292.312 208.83 292.5 208.643C292.687 208.455 292.942 208.35 293.207 208.35H448.867C449.132 208.35 449.387 208.455 449.574 208.643C449.762 208.83 449.867 209.084 449.867 209.35C449.867 209.615 449.762 209.869 449.574 210.057C449.387 210.244 449.132 210.35 448.867 210.35Z" fill="url(#paint7_linear_7869_60778)"/>
<path d="M448.868 282.09H261.398C261.133 282.09 260.879 281.984 260.691 281.797C260.504 281.609 260.398 281.355 260.398 281.09C260.398 280.825 260.504 280.57 260.691 280.383C260.879 280.195 261.133 280.09 261.398 280.09H448.868C449.134 280.09 449.388 280.195 449.576 280.383C449.763 280.57 449.868 280.825 449.868 281.09C449.868 281.355 449.763 281.609 449.576 281.797C449.388 281.984 449.134 282.09 448.868 282.09Z" fill="url(#paint8_linear_7869_60778)"/>
<path d="M413 302.07C412.735 302.07 412.48 301.964 412.293 301.777C412.105 301.589 412 301.335 412 301.07V193.26C412 192.995 412.105 192.74 412.293 192.553C412.48 192.365 412.735 192.26 413 192.26C413.265 192.26 413.52 192.365 413.707 192.553C413.895 192.74 414 192.995 414 193.26V301.07C414 301.335 413.895 301.589 413.707 301.777C413.52 301.964 413.265 302.07 413 302.07Z" fill="url(#paint9_linear_7869_60778)"/>
<path d="M352.109 330.94C351.844 330.94 351.59 330.834 351.402 330.647C351.215 330.459 351.109 330.205 351.109 329.94V193.26C351.109 192.995 351.215 192.74 351.402 192.553C351.59 192.365 351.844 192.26 352.109 192.26C352.375 192.26 352.629 192.365 352.816 192.553C353.004 192.74 353.109 192.995 353.109 193.26V329.94C353.109 330.205 353.004 330.459 352.816 330.647C352.629 330.834 352.375 330.94 352.109 330.94Z" fill="url(#paint10_linear_7869_60778)"/>
<path d="M383.598 302.07C383.332 302.07 383.078 301.964 382.891 301.777C382.703 301.589 382.598 301.335 382.598 301.07V193.26C382.598 192.995 382.703 192.74 382.891 192.553C383.078 192.365 383.332 192.26 383.598 192.26C383.863 192.26 384.117 192.365 384.305 192.553C384.492 192.74 384.598 192.995 384.598 193.26V301.07C384.598 301.335 384.492 301.589 384.305 301.777C384.117 301.964 383.863 302.07 383.598 302.07Z" fill="url(#paint11_linear_7869_60778)"/>
<path d="M448.867 247H293.207C292.942 247 292.687 246.895 292.5 246.707C292.312 246.52 292.207 246.265 292.207 246C292.207 245.735 292.312 245.48 292.5 245.293C292.687 245.105 292.942 245 293.207 245H448.867C449.132 245 449.387 245.105 449.574 245.293C449.762 245.48 449.867 245.735 449.867 246C449.867 246.265 449.762 246.52 449.574 246.707C449.387 246.895 449.132 247 448.867 247Z" fill="url(#paint12_linear_7869_60778)"/>
<path d="M448.868 282.09H261.398C261.133 282.09 260.879 281.984 260.691 281.797C260.504 281.609 260.398 281.355 260.398 281.09C260.398 280.825 260.504 280.57 260.691 280.383C260.879 280.195 261.133 280.09 261.398 280.09H448.868C449.134 280.09 449.388 280.195 449.576 280.383C449.763 280.57 449.868 280.825 449.868 281.09C449.868 281.355 449.763 281.609 449.576 281.797C449.388 281.984 449.134 282.09 448.868 282.09Z" fill="url(#paint13_linear_7869_60778)"/>
<path d="M369.317 318H293.207C292.942 318 292.687 317.895 292.5 317.707C292.312 317.52 292.207 317.265 292.207 317C292.207 316.735 292.312 316.48 292.5 316.293C292.687 316.105 292.942 316 293.207 316H369.317C369.582 316 369.837 316.105 370.024 316.293C370.212 316.48 370.317 316.735 370.317 317C370.317 317.265 370.212 317.52 370.024 317.707C369.837 317.895 369.582 318 369.317 318Z" fill="url(#paint14_linear_7869_60778)"/>
</g>
<g opacity="0.3">
<path d="M125 152.41C124.735 152.41 124.48 152.305 124.293 152.117C124.105 151.93 124 151.675 124 151.41V14.7402C124 14.475 124.105 14.2207 124.293 14.0331C124.48 13.8456 124.735 13.7402 125 13.7402C125.265 13.7402 125.52 13.8456 125.707 14.0331C125.895 14.2207 126 14.475 126 14.7402V151.41C126 151.675 125.895 151.93 125.707 152.117C125.52 152.305 125.265 152.41 125 152.41Z" fill="url(#paint15_linear_7869_60778)"/>
<path d="M156.18 152.41C155.914 152.41 155.66 152.305 155.473 152.117C155.285 151.93 155.18 151.675 155.18 151.41V14.7402C155.18 14.475 155.285 14.2207 155.473 14.0331C155.66 13.8456 155.914 13.7402 156.18 13.7402C156.445 13.7402 156.699 13.8456 156.887 14.0331C157.074 14.2207 157.18 14.475 157.18 14.7402V151.41C157.18 151.675 157.074 151.93 156.887 152.117C156.699 152.305 156.445 152.41 156.18 152.41Z" fill="url(#paint16_linear_7869_60778)"/>
<path d="M183.931 99.6797H28.2812C28.016 99.6797 27.7617 99.5743 27.5741 99.3868C27.3866 99.1992 27.2812 98.9449 27.2812 98.6797C27.2812 98.4145 27.3866 98.1601 27.5741 97.9726C27.7617 97.785 28.016 97.6797 28.2812 97.6797H183.931C184.196 97.6797 184.451 97.785 184.638 97.9726C184.826 98.1601 184.931 98.4145 184.931 98.6797C184.931 98.9449 184.826 99.1992 184.638 99.3868C184.451 99.5743 184.196 99.6797 183.931 99.6797Z" fill="url(#paint17_linear_7869_60778)"/>
<path d="M183.931 136.33H28.2812C28.016 136.33 27.7617 136.225 27.5741 136.037C27.3866 135.85 27.2812 135.595 27.2812 135.33C27.2812 135.065 27.3866 134.811 27.5741 134.623C27.7617 134.435 28.016 134.33 28.2812 134.33H183.931C184.196 134.33 184.451 134.435 184.638 134.623C184.826 134.811 184.931 135.065 184.931 135.33C184.931 135.595 184.826 135.85 184.638 136.037C184.451 136.225 184.196 136.33 183.931 136.33Z" fill="url(#paint18_linear_7869_60778)"/>
<path d="M215.741 64.6094H28.2812C28.016 64.6094 27.7617 64.504 27.5741 64.3165C27.3866 64.1289 27.2812 63.8746 27.2812 63.6094C27.2812 63.3442 27.3866 63.0898 27.5741 62.9023C27.7617 62.7147 28.016 62.6094 28.2812 62.6094H215.741C216.006 62.6094 216.261 62.7147 216.448 62.9023C216.636 63.0898 216.741 63.3442 216.741 63.6094C216.741 63.8746 216.636 64.1289 216.448 64.3165C216.261 64.504 216.006 64.6094 215.741 64.6094Z" fill="url(#paint19_linear_7869_60778)"/>
<path d="M64.1016 152.409C63.8363 152.409 63.582 152.304 63.3945 152.116C63.2069 151.929 63.1016 151.675 63.1016 151.409V43.6094C63.1016 43.3442 63.2069 43.0898 63.3945 42.9023C63.582 42.7147 63.8363 42.6094 64.1016 42.6094C64.3668 42.6094 64.6211 42.7147 64.8087 42.9023C64.9962 43.0898 65.1016 43.3442 65.1016 43.6094V151.409C65.1016 151.675 64.9962 151.929 64.8087 152.116C64.6211 152.304 64.3668 152.409 64.1016 152.409Z" fill="url(#paint20_linear_7869_60778)"/>
<path d="M125 152.41C124.735 152.41 124.48 152.305 124.293 152.117C124.105 151.93 124 151.675 124 151.41V14.7402C124 14.475 124.105 14.2207 124.293 14.0331C124.48 13.8456 124.735 13.7402 125 13.7402C125.265 13.7402 125.52 13.8456 125.707 14.0331C125.895 14.2207 126 14.475 126 14.7402V151.41C126 151.675 125.895 151.93 125.707 152.117C125.52 152.305 125.265 152.41 125 152.41Z" fill="url(#paint21_linear_7869_60778)"/>
<path d="M93.543 152.409C93.2778 152.409 93.0234 152.304 92.8359 152.116C92.6483 151.929 92.543 151.675 92.543 151.409V43.6094C92.543 43.3442 92.6483 43.0898 92.8359 42.9023C93.0234 42.7147 93.2778 42.6094 93.543 42.6094C93.8082 42.6094 94.0625 42.7147 94.2501 42.9023C94.4376 43.0898 94.543 43.3442 94.543 43.6094V151.409C94.543 151.675 94.4376 151.929 94.2501 152.116C94.0625 152.304 93.8082 152.409 93.543 152.409Z" fill="url(#paint22_linear_7869_60778)"/>
<path d="M183.931 99.6797H28.2812C28.016 99.6797 27.7617 99.5743 27.5741 99.3868C27.3866 99.1992 27.2812 98.9449 27.2812 98.6797C27.2812 98.4145 27.3866 98.1601 27.5741 97.9726C27.7617 97.785 28.016 97.6797 28.2812 97.6797H183.931C184.196 97.6797 184.451 97.785 184.638 97.9726C184.826 98.1601 184.931 98.4145 184.931 98.6797C184.931 98.9449 184.826 99.1992 184.638 99.3868C184.451 99.5743 184.196 99.6797 183.931 99.6797Z" fill="url(#paint23_linear_7869_60778)"/>
<path d="M215.741 64.6094H28.2812C28.016 64.6094 27.7617 64.504 27.5741 64.3165C27.3866 64.1289 27.2812 63.8746 27.2812 63.6094C27.2812 63.3442 27.3866 63.0898 27.5741 62.9023C27.7617 62.7147 28.016 62.6094 28.2812 62.6094H215.741C216.006 62.6094 216.261 62.7147 216.448 62.9023C216.636 63.0898 216.741 63.3442 216.741 63.6094C216.741 63.8746 216.636 64.1289 216.448 64.3165C216.261 64.504 216.006 64.6094 215.741 64.6094Z" fill="url(#paint24_linear_7869_60778)"/>
<path d="M183.932 28.6797H107.832C107.567 28.6797 107.312 28.5743 107.125 28.3868C106.937 28.1993 106.832 27.9449 106.832 27.6797C106.832 27.4145 106.937 27.1601 107.125 26.9726C107.312 26.785 107.567 26.6797 107.832 26.6797H183.932C184.197 26.6797 184.452 26.785 184.639 26.9726C184.827 27.1601 184.932 27.4145 184.932 27.6797C184.932 27.9449 184.827 28.1993 184.639 28.3868C184.452 28.5743 184.197 28.6797 183.932 28.6797Z" fill="url(#paint25_linear_7869_60778)"/>
</g>
<path d="M17.94 174.43C17.86 174.34 17.53 174.24 17.42 174.49L10 188.68C10 188.84 10.16 189.12 10.28 189.13L37.35 188.54C37.46 188.54 17.94 174.43 17.94 174.43Z" fill="url(#paint26_linear_7869_60778)"/>
<path d="M149.629 7L174.239 8.49L175.619 28.49L149.629 7Z" fill="url(#paint27_linear_7869_60778)"/>
<path d="M356.66 239.09L397.37 256.61L387.54 291.26L356.66 239.09Z" fill="url(#paint28_linear_7869_60778)"/>
<path d="M168.441 78.2006C168.443 79.3526 168.103 80.4792 167.464 81.4378C166.825 82.3964 165.916 83.1439 164.853 83.5857C163.789 84.0274 162.618 84.1435 161.488 83.9193C160.358 83.695 159.32 83.1405 158.505 82.326C157.691 81.5114 157.136 80.4735 156.912 79.3436C156.688 78.2137 156.804 77.0427 157.246 75.9788C157.687 74.9149 158.435 74.0061 159.394 73.3673C160.352 72.7286 161.479 72.3887 162.631 72.3906C164.171 72.3933 165.647 73.0063 166.736 74.0953C167.825 75.1843 168.438 76.6605 168.441 78.2006Z" fill="#2B0660"/>
<path d="M284.351 290.14C284.351 291.159 284.049 292.155 283.482 293.002C282.916 293.85 282.111 294.51 281.169 294.899C280.228 295.289 279.192 295.39 278.192 295.191C277.193 294.991 276.276 294.5 275.556 293.778C274.836 293.057 274.346 292.138 274.149 291.139C273.951 290.139 274.054 289.103 274.446 288.162C274.837 287.222 275.499 286.418 276.347 285.853C277.195 285.289 278.192 284.988 279.211 284.99C279.887 284.99 280.556 285.124 281.18 285.382C281.804 285.641 282.371 286.021 282.849 286.499C283.326 286.978 283.705 287.545 283.962 288.17C284.22 288.795 284.352 289.464 284.351 290.14Z" fill="#2B0660"/>
<path d="M113.061 231.771C113.061 232.587 112.819 233.386 112.365 234.065C111.911 234.744 111.266 235.274 110.511 235.586C109.757 235.899 108.926 235.981 108.125 235.821C107.324 235.662 106.588 235.269 106.01 234.691C105.433 234.113 105.039 233.377 104.88 232.576C104.721 231.775 104.803 230.945 105.115 230.19C105.428 229.435 105.957 228.79 106.636 228.337C107.315 227.883 108.114 227.641 108.931 227.641C110.026 227.641 111.077 228.076 111.851 228.85C112.626 229.625 113.061 230.675 113.061 231.771Z" fill="#2B0660"/>
<path d="M367.449 18.2305C367.449 18.4283 367.391 18.6216 367.281 18.786C367.171 18.9505 367.015 19.0787 366.832 19.1543C366.649 19.23 366.448 19.2498 366.254 19.2113C366.06 19.1727 365.882 19.0774 365.742 18.9376C365.602 18.7977 365.507 18.6195 365.468 18.4256C365.43 18.2316 365.45 18.0305 365.525 17.8478C365.601 17.6651 365.729 17.5089 365.894 17.399C366.058 17.2891 366.251 17.2305 366.449 17.2305C366.714 17.2305 366.969 17.3358 367.156 17.5234C367.344 17.7109 367.449 17.9653 367.449 18.2305Z" fill="#2B0660"/>
<path d="M206.66 312.74C206.66 312.938 206.601 313.131 206.492 313.296C206.382 313.46 206.226 313.588 206.043 313.664C205.86 313.74 205.659 313.76 205.465 313.721C205.271 313.682 205.093 313.587 204.953 313.447C204.813 313.307 204.718 313.129 204.679 312.935C204.641 312.741 204.661 312.54 204.736 312.358C204.812 312.175 204.94 312.019 205.105 311.909C205.269 311.799 205.462 311.74 205.66 311.74C205.925 311.74 206.18 311.846 206.367 312.033C206.555 312.221 206.66 312.475 206.66 312.74Z" fill="#2B0660"/>
<path d="M44.3086 130.609C44.3086 130.807 44.2499 131 44.1401 131.165C44.0302 131.329 43.874 131.458 43.6913 131.533C43.5085 131.609 43.3075 131.629 43.1135 131.59C42.9195 131.552 42.7413 131.456 42.6015 131.316C42.4616 131.177 42.3664 130.998 42.3278 130.804C42.2892 130.61 42.309 130.409 42.3847 130.227C42.4604 130.044 42.5886 129.888 42.753 129.778C42.9175 129.668 43.1108 129.609 43.3086 129.609C43.5738 129.609 43.8282 129.715 44.0157 129.902C44.2032 130.09 44.3086 130.344 44.3086 130.609Z" fill="#2B0660"/>
<path d="M459.172 67.1309C458.628 67.1309 458.096 66.9696 457.644 66.6674C457.192 66.3652 456.839 65.9357 456.631 65.4332C456.423 64.9307 456.369 64.3778 456.475 63.8444C456.581 63.3109 456.843 62.8209 457.227 62.4363C457.612 62.0517 458.102 61.7898 458.635 61.6837C459.169 61.5776 459.722 61.632 460.224 61.8402C460.727 62.0483 461.156 62.4008 461.458 62.853C461.761 63.3053 461.922 63.837 461.922 64.3809C461.919 65.1094 461.629 65.8073 461.114 66.3225C460.598 66.8377 459.9 67.1282 459.172 67.1309ZM459.172 62.6309C458.826 62.6309 458.487 62.7335 458.2 62.9258C457.912 63.1181 457.688 63.3914 457.555 63.7112C457.423 64.0309 457.388 64.3828 457.455 64.7223C457.523 65.0617 457.69 65.3735 457.934 65.6183C458.179 65.863 458.491 66.0297 458.83 66.0972C459.17 66.1648 459.522 66.1301 459.842 65.9977C460.161 65.8652 460.435 65.6409 460.627 65.3531C460.819 65.0653 460.922 64.727 460.922 64.3809C460.925 64.1494 460.881 63.9197 460.794 63.705C460.708 63.4904 460.579 63.2951 460.416 63.1305C460.254 62.9658 460.06 62.8352 459.846 62.746C459.633 62.6568 459.403 62.6108 459.172 62.6109V62.6309Z" fill="#2B0660"/>
<path d="M445.329 300.901C444.413 300.901 443.518 300.629 442.756 300.12C441.994 299.61 441.401 298.887 441.051 298.04C440.701 297.194 440.609 296.262 440.789 295.364C440.968 294.465 441.41 293.64 442.059 292.993C442.707 292.346 443.533 291.906 444.432 291.728C445.331 291.551 446.262 291.644 447.108 291.996C447.954 292.348 448.676 292.943 449.184 293.706C449.691 294.468 449.961 295.364 449.959 296.281C449.957 297.507 449.468 298.682 448.6 299.548C447.732 300.414 446.555 300.901 445.329 300.901ZM445.329 292.651C444.611 292.651 443.909 292.864 443.313 293.262C442.716 293.661 442.25 294.228 441.976 294.891C441.701 295.555 441.629 296.285 441.769 296.989C441.909 297.693 442.255 298.34 442.762 298.847C443.27 299.355 443.917 299.701 444.621 299.841C445.325 299.981 446.055 299.909 446.718 299.634C447.382 299.36 447.949 298.894 448.347 298.297C448.746 297.7 448.959 296.999 448.959 296.281C448.963 295.801 448.872 295.325 448.692 294.881C448.511 294.436 448.245 294.032 447.907 293.691C447.57 293.35 447.169 293.079 446.726 292.893C446.284 292.708 445.809 292.612 445.329 292.611V292.651Z" fill="#2B0660"/>
<path opacity="0.52" d="M316.05 133.059C314.245 133.04 312.477 132.551 310.92 131.639C306.72 129.209 304.87 124.509 306.81 121.149C308.75 117.789 313.74 117.039 317.95 119.469C319.895 120.554 321.423 122.258 322.29 124.309C322.689 125.205 322.876 126.181 322.836 127.161C322.796 128.141 322.531 129.099 322.06 129.959C321.423 130.962 320.531 131.778 319.475 132.323C318.419 132.868 317.237 133.122 316.05 133.059ZM312.81 119.059C311.8 119 310.793 119.21 309.891 119.669C308.99 120.128 308.227 120.818 307.68 121.669C306.02 124.549 307.68 128.669 311.42 130.789C315.16 132.909 319.54 132.359 321.2 129.479C321.592 128.749 321.811 127.938 321.841 127.109C321.87 126.28 321.709 125.456 321.37 124.699C320.576 122.861 319.199 121.335 317.45 120.359C316.046 119.52 314.446 119.065 312.81 119.039V119.059Z" fill="white"/>
<path d="M280.242 16.3607C279.734 16.3607 279.237 16.21 278.814 15.9276C278.391 15.6452 278.062 15.2438 277.868 14.7742C277.673 14.3046 277.622 13.7879 277.721 13.2893C277.82 12.7908 278.065 12.3329 278.425 11.9734C278.784 11.614 279.242 11.3693 279.74 11.2701C280.239 11.1709 280.756 11.2218 281.225 11.4163C281.695 11.6109 282.096 11.9403 282.379 12.3629C282.661 12.7855 282.812 13.2824 282.812 13.7907C282.812 14.4723 282.541 15.126 282.059 15.608C281.577 16.0899 280.923 16.3607 280.242 16.3607ZM280.242 12.2307C279.931 12.2307 279.627 12.323 279.369 12.496C279.11 12.669 278.909 12.9148 278.79 13.2022C278.672 13.4897 278.641 13.8059 278.703 14.1107C278.764 14.4155 278.915 14.6952 279.135 14.9144C279.356 15.1336 279.637 15.2823 279.942 15.3417C280.247 15.4012 280.563 15.3687 280.85 15.2483C281.136 15.1279 281.381 14.9252 281.552 14.6657C281.723 14.4062 281.814 14.1016 281.812 13.7907C281.812 13.585 281.771 13.3813 281.692 13.1914C281.613 13.0015 281.497 12.8291 281.351 12.6841C281.205 12.5391 281.032 12.4244 280.842 12.3466C280.652 12.2688 280.448 12.2294 280.242 12.2307Z" fill="#2B0660"/>
<path d="M71.2801 20.0891C70.2192 20.0911 69.1815 19.7782 68.2985 19.19C67.4156 18.6018 66.727 17.7648 66.3201 16.7849C65.9132 15.8051 65.8062 14.7266 66.0127 13.6859C66.2192 12.6452 66.7299 11.6893 67.4801 10.9391C68.2303 10.1888 69.1863 9.67814 70.2269 9.47165C71.2676 9.26515 72.3461 9.37214 73.326 9.77907C74.3058 10.186 75.1428 10.8745 75.731 11.7575C76.3192 12.6405 76.6321 13.6782 76.6302 14.7391C76.6275 16.1572 76.063 17.5165 75.0603 18.5192C74.0575 19.522 72.6982 20.0865 71.2801 20.0891ZM71.2801 10.3791C70.4174 10.3772 69.5735 10.6312 68.8551 11.1091C68.1368 11.5869 67.5764 12.2672 67.2449 13.0637C66.9134 13.8602 66.8256 14.7372 66.9927 15.5836C67.1598 16.43 67.5743 17.2078 68.1836 17.8186C68.793 18.4293 69.5698 18.8456 70.4159 19.0146C71.2619 19.1837 72.1391 19.0979 72.9363 18.7682C73.7336 18.4385 74.4151 17.8797 74.8947 17.1625C75.3742 16.4452 75.6302 15.6019 75.6302 14.7391C75.6275 13.5853 75.1687 12.4794 74.3538 11.6626C73.5388 10.8458 72.4339 10.3844 71.2801 10.3791Z" fill="#2B0660"/>
<path d="M66.4219 60.5293L104.002 79.0493L88.5119 98.9093L66.4219 60.5293Z" fill="url(#paint29_linear_7869_60778)"/>
<path d="M104.022 79.0508L105.302 99.9208L88.5117 98.9208L104.022 79.0508Z" fill="#2B0660"/>
<path d="M372.309 41.2695L389.309 15.6895L408.609 28.7595L372.309 41.2695Z" fill="url(#paint30_linear_7869_60778)"/>
<path d="M372.309 41.2698L409.509 33.2398L408.649 28.7598L372.309 41.2698Z" fill="#2B0660"/>
<path d="M49.2391 214.641L44.4091 234.511L24.0391 238.071L40.1191 245.071L31.6791 264.011L46.6991 255.751L55.7991 274.531L60.2791 254.001L75.2991 257.401L65.3291 241.721L76.5191 225.921L59.0691 231.671L49.2391 214.641Z" fill="url(#paint31_linear_7869_60778)"/>
<path d="M340.179 82.9199L337.429 92.5999L325.859 94.3399L334.999 97.7499L330.199 106.98L338.739 102.96L343.909 112.11L346.459 102.1L354.989 103.76L349.329 96.1099L355.689 88.4099L345.769 91.2199L340.179 82.9199Z" fill="url(#paint32_linear_7869_60778)"/>
<path d="M325.271 288.76L322.521 298.45L310.941 300.19L320.081 303.6L315.281 312.83L323.821 308.8L328.991 317.96L331.541 307.95L340.081 309.61L334.411 301.96L340.771 294.26L330.851 297.06L325.271 288.76Z" fill="url(#paint33_linear_7869_60778)"/>
<path d="M444.791 180.09L461.251 167.56L439.381 166.79L444.291 143.47L426.321 159.74L416.801 128.67L411.701 160.13L393.321 152.8L400.181 167.32L371.031 168.75L396.471 181.32L374.031 195.18L401.661 194.06L391.641 214.69L410.491 204.1L420.141 231.46L429.151 203.6L445.031 216.14L438.391 193.52L464.461 197.2L444.791 180.09Z" fill="url(#paint34_linear_7869_60778)"/>
</g>
<defs>
<linearGradient id="paint0_linear_7869_60778" x1="53.581" y1="103.649" x2="258.862" y2="147.637" gradientUnits="userSpaceOnUse">
<stop stop-color="#F484DF"/>
<stop offset="1" stop-color="#6D4FFC"/>
</linearGradient>
<linearGradient id="paint1_linear_7869_60778" x1="44.133" y1="140.347" x2="147.066" y2="205.7" gradientUnits="userSpaceOnUse">
<stop stop-color="#F484DF"/>
<stop offset="1" stop-color="#6D4FFC"/>
</linearGradient>
<linearGradient id="paint2_linear_7869_60778" x1="250.192" y1="61.9506" x2="255.622" y2="61.9506" gradientUnits="userSpaceOnUse">
<stop stop-color="#00CBF3"/>
<stop offset="1" stop-color="#4E60FE"/>
</linearGradient>
<linearGradient id="paint3_linear_7869_60778" x1="150.847" y1="197.001" x2="318.859" y2="233.004" gradientUnits="userSpaceOnUse">
<stop stop-color="#00CBF3"/>
<stop offset="1" stop-color="#4E60FE"/>
</linearGradient>
<linearGradient id="paint4_linear_7869_60778" x1="351.109" y1="261.6" x2="353.109" y2="261.6" gradientUnits="userSpaceOnUse">
<stop stop-color="#F484DF"/>
<stop offset="1" stop-color="#6D4FFC"/>
</linearGradient>
<linearGradient id="paint5_linear_7869_60778" x1="319.96" y1="261.6" x2="321.96" y2="261.6" gradientUnits="userSpaceOnUse">
<stop stop-color="#F484DF"/>
<stop offset="1" stop-color="#6D4FFC"/>
</linearGradient>
<linearGradient id="paint6_linear_7869_60778" x1="292.207" y1="246" x2="449.867" y2="246" gradientUnits="userSpaceOnUse">
<stop stop-color="#F484DF"/>
<stop offset="1" stop-color="#6D4FFC"/>
</linearGradient>
<linearGradient id="paint7_linear_7869_60778" x1="292.207" y1="209.35" x2="449.867" y2="209.35" gradientUnits="userSpaceOnUse">
<stop stop-color="#F484DF"/>
<stop offset="1" stop-color="#6D4FFC"/>
</linearGradient>
<linearGradient id="paint8_linear_7869_60778" x1="260.398" y1="281.09" x2="449.868" y2="281.09" gradientUnits="userSpaceOnUse">
<stop stop-color="#F484DF"/>
<stop offset="1" stop-color="#6D4FFC"/>
</linearGradient>
<linearGradient id="paint9_linear_7869_60778" x1="412.04" y1="247.17" x2="414.04" y2="247.17" gradientUnits="userSpaceOnUse">
<stop stop-color="#F484DF"/>
<stop offset="1" stop-color="#6D4FFC"/>
</linearGradient>
<linearGradient id="paint10_linear_7869_60778" x1="351.109" y1="261.6" x2="353.109" y2="261.6" gradientUnits="userSpaceOnUse">
<stop stop-color="#F484DF"/>
<stop offset="1" stop-color="#6D4FFC"/>
</linearGradient>
<linearGradient id="paint11_linear_7869_60778" x1="382.598" y1="247.17" x2="384.598" y2="247.17" gradientUnits="userSpaceOnUse">
<stop stop-color="#F484DF"/>
<stop offset="1" stop-color="#6D4FFC"/>
</linearGradient>
<linearGradient id="paint12_linear_7869_60778" x1="292.207" y1="246" x2="449.867" y2="246" gradientUnits="userSpaceOnUse">
<stop stop-color="#F484DF"/>
<stop offset="1" stop-color="#6D4FFC"/>
</linearGradient>
<linearGradient id="paint13_linear_7869_60778" x1="260.398" y1="281.09" x2="449.868" y2="281.09" gradientUnits="userSpaceOnUse">
<stop stop-color="#F484DF"/>
<stop offset="1" stop-color="#6D4FFC"/>
</linearGradient>
<linearGradient id="paint14_linear_7869_60778" x1="292.207" y1="317" x2="370.317" y2="317" gradientUnits="userSpaceOnUse">
<stop stop-color="#F484DF"/>
<stop offset="1" stop-color="#6D4FFC"/>
</linearGradient>
<linearGradient id="paint15_linear_7869_60778" x1="126.03" y1="83.0702" x2="124.03" y2="83.0702" gradientUnits="userSpaceOnUse">
<stop stop-color="#F484DF"/>
<stop offset="1" stop-color="#6D4FFC"/>
</linearGradient>
<linearGradient id="paint16_linear_7869_60778" x1="157.18" y1="83.0702" x2="155.18" y2="83.0702" gradientUnits="userSpaceOnUse">
<stop stop-color="#F484DF"/>
<stop offset="1" stop-color="#6D4FFC"/>
</linearGradient>
<linearGradient id="paint17_linear_7869_60778" x1="184.931" y1="98.6797" x2="27.2812" y2="98.6797" gradientUnits="userSpaceOnUse">
<stop stop-color="#F484DF"/>
<stop offset="1" stop-color="#6D4FFC"/>
</linearGradient>
<linearGradient id="paint18_linear_7869_60778" x1="184.931" y1="135.33" x2="27.2812" y2="135.33" gradientUnits="userSpaceOnUse">
<stop stop-color="#F484DF"/>
<stop offset="1" stop-color="#6D4FFC"/>
</linearGradient>
<linearGradient id="paint19_linear_7869_60778" x1="216.741" y1="63.5894" x2="27.2812" y2="63.5894" gradientUnits="userSpaceOnUse">
<stop stop-color="#F484DF"/>
<stop offset="1" stop-color="#6D4FFC"/>
</linearGradient>
<linearGradient id="paint20_linear_7869_60778" x1="65.1016" y1="97.5094" x2="63.1016" y2="97.5094" gradientUnits="userSpaceOnUse">
<stop stop-color="#F484DF"/>
<stop offset="1" stop-color="#6D4FFC"/>
</linearGradient>
<linearGradient id="paint21_linear_7869_60778" x1="126.03" y1="83.0702" x2="124.03" y2="83.0702" gradientUnits="userSpaceOnUse">
<stop stop-color="#F484DF"/>
<stop offset="1" stop-color="#6D4FFC"/>
</linearGradient>
<linearGradient id="paint22_linear_7869_60778" x1="94.543" y1="97.5094" x2="92.543" y2="97.5094" gradientUnits="userSpaceOnUse">
<stop stop-color="#F484DF"/>
<stop offset="1" stop-color="#6D4FFC"/>
</linearGradient>
<linearGradient id="paint23_linear_7869_60778" x1="184.931" y1="98.6797" x2="27.2812" y2="98.6797" gradientUnits="userSpaceOnUse">
<stop stop-color="#F484DF"/>
<stop offset="1" stop-color="#6D4FFC"/>
</linearGradient>
<linearGradient id="paint24_linear_7869_60778" x1="216.741" y1="63.5894" x2="27.2812" y2="63.5894" gradientUnits="userSpaceOnUse">
<stop stop-color="#F484DF"/>
<stop offset="1" stop-color="#6D4FFC"/>
</linearGradient>
<linearGradient id="paint25_linear_7869_60778" x1="184.932" y1="27.6797" x2="106.822" y2="27.6797" gradientUnits="userSpaceOnUse">
<stop stop-color="#F484DF"/>
<stop offset="1" stop-color="#6D4FFC"/>
</linearGradient>
<linearGradient id="paint26_linear_7869_60778" x1="16.3014" y1="175.812" x2="27.636" y2="194.955" gradientUnits="userSpaceOnUse">
<stop stop-color="#4E60FE"/>
<stop offset="1" stop-color="#00CBF3"/>
</linearGradient>
<linearGradient id="paint27_linear_7869_60778" x1="148.062" y1="18.3434" x2="175.141" y2="20.0013" gradientUnits="userSpaceOnUse">
<stop stop-color="#F484DF"/>
<stop offset="1" stop-color="#6D4FFC"/>
</linearGradient>
<linearGradient id="paint28_linear_7869_60778" x1="350.038" y1="257.515" x2="395.185" y2="277.079" gradientUnits="userSpaceOnUse">
<stop stop-color="#F484DF"/>
<stop offset="1" stop-color="#6D4FFC"/>
</linearGradient>
<linearGradient id="paint29_linear_7869_60778" x1="77.7541" y1="54.5758" x2="96.7429" y2="94.3198" gradientUnits="userSpaceOnUse">
<stop stop-color="#4E60FE"/>
<stop offset="1" stop-color="#00CBF3"/>
</linearGradient>
<linearGradient id="paint30_linear_7869_60778" x1="372.309" y1="28.4795" x2="408.649" y2="28.4795" gradientUnits="userSpaceOnUse">
<stop stop-color="#F484DF"/>
<stop offset="1" stop-color="#6D4FFC"/>
</linearGradient>
<linearGradient id="paint31_linear_7869_60778" x1="24.0391" y1="244.581" x2="76.5191" y2="244.581" gradientUnits="userSpaceOnUse">
<stop stop-color="#F484DF"/>
<stop offset="1" stop-color="#6D4FFC"/>
</linearGradient>
<linearGradient id="paint32_linear_7869_60778" x1="325.859" y1="97.5099" x2="355.689" y2="97.5099" gradientUnits="userSpaceOnUse">
<stop stop-color="#00CBF3"/>
<stop offset="1" stop-color="#4E60FE"/>
</linearGradient>
<linearGradient id="paint33_linear_7869_60778" x1="310.941" y1="303.36" x2="340.771" y2="303.36" gradientUnits="userSpaceOnUse">
<stop stop-color="#00CBF3"/>
<stop offset="1" stop-color="#4E60FE"/>
</linearGradient>
<linearGradient id="paint34_linear_7869_60778" x1="371.715" y1="178.801" x2="464.944" y2="177.788" gradientUnits="userSpaceOnUse">
<stop stop-color="#4E60FE"/>
<stop offset="1" stop-color="#00CBF3"/>
</linearGradient>
<clipPath id="clip0_7869_60778">
<rect width="320.62" height="307.87" fill="white" transform="translate(47 20)"/>
</clipPath>
<clipPath id="clip1_7869_60778">
<rect width="463.49" height="395.34" fill="white"/>
</clipPath>
</defs>
</svg>
